<svg width="16" height="13" viewBox="0 0 16 13" fill="none" xmlns="http://www.w3.org/2000/svg">
<path d="M14.8732 6.92016L9.52945 12.2639C9.41804 12.3753 9.26693 12.4379 9.10938 12.4379C8.95182 12.4379 8.80071 12.3753 8.6893 12.2639C8.57789 12.1525 8.51529 12.0014 8.51529 11.8438C8.51529 11.6863 8.57789 11.5352 8.6893 11.4238L13.02 7.09384H1.39062C1.23315 7.09384 1.08213 7.03128 0.97078 6.91993C0.859431 6.80858 0.796875 6.65756 0.796875 6.50009C0.796875 6.34261 0.859431 6.19159 0.97078 6.08024C1.08213 5.96889 1.23315 5.90634 1.39062 5.90634H13.02L8.6893 1.57641C8.57789 1.465 8.51529 1.3139 8.51529 1.15634C8.51529 0.998776 8.57789 0.84767 8.6893 0.736258C8.80071 0.624846 8.95182 0.562256 9.10938 0.562256C9.26693 0.562256 9.41804 0.624846 9.52945 0.736258L14.8732 6.08001C14.9284 6.13515 14.9722 6.20063 15.0021 6.27272C15.032 6.3448 15.0473 6.42206 15.0473 6.50009C15.0473 6.57811 15.032 6.65538 15.0021 6.72746C14.9722 6.79954 14.9284 6.86502 14.8732 6.92016Z" fill="#F3F2F1"/>
</svg>
