<svg width="97" height="94" viewBox="0 0 97 94" fill="none" xmlns="http://www.w3.org/2000/svg">
<path fill-rule="evenodd" clip-rule="evenodd" d="M48.2398 1.64062e-05C58.8565 -0.000862053 69.1765 3.46572 77.5972 9.8615C86.0181 16.2573 92.0686 25.2244 94.8097 35.3705C97.5505 45.5167 96.8284 56.2743 92.7552 65.9728C88.6821 75.6713 81.4861 83.7682 72.2841 89.0063L48.2569 42.4247V16.5694L48.3166 16.6877L52.2799 24.3512L56.2945 32.1079L60.3175 39.8813L64.3491 47.6632L68.3723 55.4537L72.4038 63.2357L76.5294 71.2794C81.6344 65.2817 84.6574 57.8209 85.1538 49.9955C85.6499 42.1703 83.5927 34.3942 79.2854 27.8125C74.9779 21.2306 68.6478 16.1911 61.2272 13.4358C53.8066 10.6805 45.688 10.3551 38.0662 12.5076C30.4447 14.6601 23.7233 19.1767 18.8918 25.3923C14.0604 31.6078 11.3742 39.1938 11.2288 47.033C11.0835 54.8724 13.4867 62.5507 18.0846 68.9373C22.6824 75.3239 29.2319 80.0813 36.7686 82.5088V94C25.315 91.2339 15.2836 84.4112 8.57209 74.8225C1.86058 65.2339 -1.06547 53.5445 0.347535 41.9658C1.76054 30.3871 7.41459 19.7222 16.24 11.9889C25.0654 4.25563 36.4499 -0.00965353 48.2398 1.64062e-05Z" fill="white"/>
<path fill-rule="evenodd" clip-rule="evenodd" d="M48.2398 42.3905L31.0543 75.436C27.4908 73.4451 24.3312 70.8179 21.7355 67.6879L24.0759 63.2351L28.0989 55.4531L32.1305 47.6797L36.1535 39.8978L40.1852 32.1075L44.2082 24.3339L48.2398 16.552L54 33.5L48.2398 42.3905Z" fill="white"/>
</svg>
