<svg width="116" height="35" viewBox="0 0 116 35" fill="none" xmlns="http://www.w3.org/2000/svg">
<g clip-path="url(#clip0_1_13)">
<path fill-rule="evenodd" clip-rule="evenodd" d="M17.859 6.07378e-06C21.7894 -0.000319143 25.61 1.28305 28.7275 3.65085C31.845 6.01865 34.085 9.33839 35.0997 13.0946C36.1144 16.8509 35.8471 20.8334 34.3392 24.424C32.8312 28.0145 30.1672 31.0121 26.7605 32.9513L17.8653 15.7062V6.13419L17.8874 6.17798L19.3547 9.01513L20.8409 11.8868L22.3303 14.7646L23.8228 17.6455L25.3123 20.5297L26.8048 23.4107L28.3321 26.3885C30.2221 24.1681 31.3413 21.406 31.525 18.509C31.7087 15.612 30.9471 12.7332 29.3525 10.2965C27.7578 7.85985 25.4143 5.99415 22.6671 4.9741C19.9199 3.95405 16.9143 3.83361 14.0926 4.63049C11.271 5.42737 8.78267 7.09946 6.994 9.40056C5.20533 11.7016 4.21086 14.5101 4.15706 17.4122C4.10325 20.3145 4.99296 23.1571 6.69514 25.5215C8.39732 27.8859 10.822 29.6471 13.6122 30.5458V34.8C9.37195 33.776 5.65819 31.2501 3.1735 27.7003C0.688811 24.1504 -0.394451 19.8229 0.128662 15.5363C0.651774 11.2497 2.74498 7.3014 6.01225 4.43844C9.27954 1.57549 13.4942 -0.00357386 17.859 6.07378e-06Z" fill="#25262B"/>
<path d="M109.263 17.4926C110.557 17.4926 111.469 17.4018 112.001 17.2201C112.242 17.1562 112.452 17.0126 112.597 16.8131C112.743 16.6138 112.814 16.3708 112.799 16.1254V13.1742C111.711 12.7184 110.539 12.49 109.357 12.5034C108.186 12.5034 107.299 12.706 106.696 13.1113C106.398 13.3121 106.158 13.5858 105.998 13.9058C105.839 14.2259 105.766 14.5814 105.787 14.9375C105.767 15.3192 105.853 15.6991 106.034 16.0367C106.215 16.3743 106.486 16.6569 106.817 16.8544C107.553 17.2934 108.401 17.5149 109.26 17.4926H109.263ZM109.966 3.92478C111.648 3.92478 113.078 4.32542 114.257 5.12667C115.435 5.92793 116.017 7.22067 115.999 9.00485V16.3047C115.999 17.6837 115.384 18.6417 114.153 19.1791C112.923 19.7163 111.17 19.9849 108.895 19.9849C107.071 19.9849 105.565 19.61 104.374 18.8599C103.184 18.1099 102.59 16.8521 102.59 15.0866C102.59 13.4234 103.076 12.1765 104.05 11.3458C105.023 10.515 106.402 10.0988 108.187 10.0973C110.033 10.0973 111.57 10.463 112.799 11.1944V9.73627C112.799 7.66633 111.539 6.63137 109.018 6.63137C108.1 6.63408 107.187 6.77305 106.31 7.04364C105.493 7.27365 104.73 7.66158 104.066 8.18496V5.20354C104.846 4.76037 105.696 4.45161 106.581 4.29048C107.694 4.04489 108.831 3.92224 109.972 3.92478H109.966ZM97.6589 19.9267C96.2467 19.9267 95.1393 19.5517 94.3389 18.8017C93.5385 18.0517 93.1395 16.9864 93.1434 15.6059V6.90622H90.6517V4.26019H93.1434V0H96.4563V4.26019H100.223V6.90622H96.4563V14.9677C96.4563 15.7178 96.5893 16.2613 96.8561 16.5982C97.1222 16.9336 97.5931 17.099 98.269 17.099C98.6162 17.0969 98.9619 17.0515 99.2983 16.9639C99.6216 16.8884 99.9325 16.7693 100.223 16.6099V19.4399C99.4159 19.7826 98.5428 19.9488 97.6635 19.9267H97.6589ZM81.5132 17.4926C82.8054 17.4926 83.718 17.4018 84.2516 17.2201C84.4921 17.1562 84.7024 17.0126 84.8478 16.8131C84.9932 16.6138 85.0643 16.3708 85.0504 16.1254V13.1742C83.9608 12.7182 82.7877 12.4898 81.6052 12.5034C80.4375 12.5034 79.5512 12.706 78.9473 13.1113C78.6488 13.3121 78.4083 13.5858 78.249 13.9058C78.0896 14.2259 78.017 14.5814 78.0378 14.9375C78.0185 15.3194 78.1043 15.6994 78.2853 16.0371C78.467 16.3746 78.7385 16.6572 79.0695 16.8544C79.8057 17.2934 80.654 17.5149 81.5132 17.4926ZM82.22 3.92478C83.9013 3.92478 85.3311 4.32542 86.5097 5.12667C87.689 5.92793 88.2683 7.22067 88.2474 9.00485V16.3047C88.2474 17.6837 87.6326 18.6417 86.4014 19.1791C85.1711 19.7163 83.421 19.9857 81.1505 19.9873C79.327 19.9873 77.8198 19.6123 76.63 18.8622C75.4401 18.1122 74.8451 16.8544 74.8451 15.0889C74.8451 13.4258 75.3318 12.1788 76.305 11.3481C77.2783 10.5173 78.6581 10.1012 80.4445 10.0997C82.2904 10.0997 83.8278 10.4653 85.0574 11.1967V9.73627C85.0574 7.66633 83.7969 6.63137 81.2758 6.63137C80.3547 6.63338 79.4399 6.77236 78.5606 7.04364C77.744 7.27313 76.9808 7.6611 76.3168 8.18496V5.20354C77.0938 4.76135 77.9412 4.45262 78.822 4.29048C79.9379 4.0442 81.0786 3.92155 82.2223 3.92478H82.22ZM72.9874 4.26019L66.6299 20.4741C65.316 23.7816 63.5422 25.4346 61.3084 25.4331C60.6134 25.453 59.922 25.3284 59.2787 25.0674V22.3305C59.7668 22.5287 60.2887 22.6323 60.8162 22.6356C61.1701 22.6513 61.5231 22.5884 61.849 22.4513C62.1751 22.3142 62.4658 22.1066 62.6999 21.8436C63.1615 21.3172 63.5539 20.516 63.8773 19.4399L57.5833 4.26019H61.2424L65.4549 15.6735L69.6391 4.26019H72.9874ZM49.0289 17.4926C50.3193 17.4926 51.2313 17.4018 51.7651 17.2201C52.0055 17.1567 52.2165 17.0132 52.3623 16.8137C52.5082 16.6143 52.58 16.3712 52.5656 16.1254V13.1742C51.4785 12.7193 50.3082 12.491 49.1279 12.5034C47.96 12.5034 47.073 12.706 46.4671 13.1113C46.1692 13.3122 45.9292 13.586 45.7703 13.9061C45.6114 14.2262 45.5391 14.5815 45.5606 14.9375C45.5411 15.3191 45.6264 15.699 45.8075 16.0365C45.9887 16.374 46.2589 16.6567 46.5895 16.8544C47.3247 17.2925 48.171 17.5139 49.0289 17.4926ZM49.7354 3.92478C51.4165 3.92478 52.8466 4.32542 54.0255 5.12667C55.2044 5.92793 55.7836 7.22067 55.7632 9.00485V16.3047C55.7632 17.6837 55.1479 18.6417 53.9172 19.1791C52.6865 19.7163 50.9331 19.9857 48.657 19.9873C46.8329 19.9873 45.3259 19.6123 44.1361 18.8622C42.9462 18.1122 42.3521 16.8544 42.3536 15.0889C42.3536 13.4258 42.8402 12.1788 43.8134 11.3481C44.7867 10.5173 46.1658 10.1012 47.9505 10.0997C49.795 10.0997 51.3326 10.4653 52.5633 11.1967V9.73627C52.5633 7.66633 51.302 6.63137 48.7794 6.63137C47.8594 6.63305 46.9449 6.77203 46.0668 7.04364C45.2493 7.27366 44.4858 7.66156 43.8205 8.18496V5.20354C44.5982 4.76102 45.4461 4.45228 46.3282 4.29048C47.4466 4.04364 48.5895 3.92099 49.7354 3.92478Z" fill="#25262B"/>
<path d="M116 33.5031L115.967 34.6146H111.455C111.496 33.5833 111.522 32.4196 111.522 31.1275C111.522 29.8354 111.496 28.8241 111.455 27.9454H115.751L115.693 29.069C114.631 29.0168 113.673 28.9887 112.811 28.9887C112.848 29.4622 112.865 30.02 112.865 30.6661C113.603 30.6661 114.391 30.6661 115.232 30.6098V31.6813C114.404 31.6451 113.615 31.6291 112.865 31.6291C112.865 32.3193 112.865 32.9694 112.911 33.5753C113.878 33.5753 114.908 33.5459 116 33.487V33.5031ZM107.78 33.4108L107.69 34.5865C107.205 34.7005 106.708 34.7584 106.209 34.759C104.998 34.759 104.076 34.4367 103.443 33.792C102.819 33.157 102.479 32.3089 102.498 31.4325C102.485 30.503 102.847 29.6053 103.505 28.9285C103.859 28.569 104.29 28.2879 104.766 28.1044C105.243 27.9208 105.755 27.8392 106.267 27.8651C106.679 27.8629 107.091 27.9115 107.491 28.0096L107.303 29.1893C106.918 29.0655 106.515 29.0006 106.109 28.9967C105.808 28.9741 105.506 29.0221 105.228 29.1366C104.95 29.2512 104.705 29.429 104.513 29.6548C104.153 30.1155 103.966 30.6822 103.986 31.2599C103.974 31.8715 104.196 32.4657 104.608 32.9292C104.824 33.1671 105.093 33.3543 105.395 33.4766C105.697 33.5991 106.023 33.6533 106.35 33.6355C106.835 33.6261 107.317 33.5505 107.78 33.4108ZM97.368 29.9196C97.368 29.2415 96.9157 28.9004 96.012 28.9004C95.7181 28.8972 95.4251 28.9213 95.1369 28.9726C95.1743 29.5023 95.191 30.1764 95.191 31.0392H95.6839C96.809 31.0472 97.3703 30.6741 97.368 29.9196ZM99.3498 34.6146H97.7868C97.5638 33.8353 97.2485 33.0838 96.8448 32.3755C96.7142 32.2316 96.5494 32.1201 96.3647 32.0503C96.18 31.9805 95.9809 31.9544 95.7834 31.9742H95.199C95.199 32.8517 95.2141 33.7385 95.2444 34.6347H93.7769C93.8207 33.602 93.843 32.4397 93.843 31.1476C93.843 29.9036 93.8207 28.8429 93.7769 27.9655H94.6886C94.7969 27.9655 95.0167 27.9655 95.3527 27.9655C95.6879 27.9655 96.0032 27.9655 96.2898 27.9655C97.907 27.9655 98.7152 28.5005 98.7152 29.5706C98.7152 30.4172 98.255 31.0112 97.3305 31.3442V31.4044C97.739 31.5432 98.075 31.8312 98.2677 32.2069C98.6913 32.9815 99.0536 33.7864 99.3498 34.6146ZM89.986 33.487L89.9446 34.6146H85.4411C85.488 33.582 85.5103 32.4196 85.5071 31.1275C85.5071 29.8835 85.4856 28.8228 85.4411 27.9454H89.7368L89.6787 29.069C88.622 29.0168 87.6594 28.9887 86.801 28.9887C86.8345 29.4622 86.8512 30.02 86.8512 30.6661C87.5893 30.6661 88.3768 30.6661 89.2184 30.6098V31.6813C88.3895 31.6451 87.606 31.6291 86.8512 31.6291C86.8512 32.3193 86.8512 32.9694 86.8966 33.5753C87.864 33.586 88.8936 33.562 89.986 33.5031V33.487ZM81.4097 34.6146H79.8713C79.8713 34.0341 79.8339 33.055 79.7599 31.6772C79.685 30.2995 79.646 29.4408 79.6436 29.101H79.5648C79.5314 29.3057 79.4358 29.6829 79.2829 30.2366C79.1293 30.7904 78.8474 31.605 78.4286 32.6804C78.1499 33.302 77.9405 33.9504 77.8027 34.6146H76.633C76.5048 33.9461 76.305 33.2925 76.0359 32.6644C75.6323 31.581 75.3696 30.8225 75.2481 30.3892C75.1271 29.965 75.0288 29.535 74.9536 29.101H74.8707C74.8707 29.5264 74.8251 30.4413 74.7421 31.8458C74.6592 33.2502 74.6219 34.1692 74.6219 34.6146H73.2203C73.2203 34.5103 73.3489 33.487 73.606 31.5368C73.8631 29.5866 73.9916 28.3907 73.9916 27.9253H76.0359C76.1501 28.791 76.3687 29.6408 76.6872 30.4574C77.0025 31.2814 77.2199 32.1376 77.3337 33.0095H77.4165C77.4165 32.6403 77.6626 31.8043 78.1547 30.5015C78.6467 29.1987 78.8928 28.356 78.8928 27.9735H80.9248C80.9248 28.6823 81.006 29.9437 81.1692 31.7575C81.3309 33.5592 81.4097 34.5183 81.4097 34.6146ZM69.4296 34.6146H67.8912C67.8912 34.0341 67.8538 33.055 67.7792 31.6772C67.7087 30.3009 67.6673 29.4421 67.6673 29.101H67.5843C67.5511 29.3057 67.4558 29.6829 67.3024 30.2366C67.1489 30.7904 66.867 31.605 66.4482 32.6804C66.1697 33.302 65.9598 33.9504 65.822 34.6146H64.6568C64.5263 33.9463 64.3248 33.2927 64.0555 32.6644C63.6547 31.581 63.3921 30.8225 63.2676 30.3892C63.1474 29.9558 63.0479 29.5264 62.9733 29.101H62.8944C62.8944 29.5264 62.8503 30.4413 62.7618 31.8458C62.6788 33.2463 62.6416 34.1692 62.6416 34.6146H61.2441C61.2441 34.5103 61.3685 33.487 61.6256 31.5368C61.8827 29.5866 62.0113 28.3907 62.0113 27.9253H64.0555C64.1697 28.791 64.3882 29.6408 64.7065 30.4574C65.0223 31.2814 65.2394 32.1376 65.3534 33.0095H65.4322C65.4322 32.6403 65.681 31.8057 66.1703 30.5015C66.6596 29.1974 66.9084 28.3547 66.9084 27.9735H68.9402C68.9402 28.6823 69.0218 29.9437 69.1849 31.7575C69.3342 33.5592 69.4296 34.5183 69.4296 34.6146ZM56.2301 31.3041C56.2581 30.6794 56.0569 30.0654 55.662 29.5706C55.4994 29.3623 55.2887 29.1936 55.0469 29.0779C54.805 28.9623 54.5385 28.9028 54.2688 28.9044C54.0095 28.9087 53.7551 28.9734 53.5271 29.0928C53.299 29.2122 53.1039 29.383 52.9584 29.5906C52.585 30.0809 52.3949 30.6794 52.4193 31.288C52.3913 31.9126 52.5926 32.5267 52.9875 33.0216C53.1508 33.2291 53.3615 33.3973 53.6033 33.5129C53.845 33.6285 54.1111 33.6883 54.3807 33.6876C54.6396 33.6853 54.8941 33.6229 55.1228 33.5056C55.3516 33.3882 55.5478 33.2195 55.6952 33.0135C56.0678 32.5246 56.2565 31.9271 56.2301 31.3201V31.3041ZM57.6897 31.1556C57.7237 32.1176 57.3664 33.0541 56.6945 33.7639C56.3853 34.097 56.0058 34.3619 55.5814 34.5405C55.1572 34.7191 54.6982 34.8073 54.2356 34.7992C53.7985 34.8091 53.3642 34.7296 52.9612 34.5657C52.5581 34.4017 52.1954 34.1573 51.8968 33.8482C51.5827 33.5273 51.3377 33.1493 51.1762 32.7359C51.0145 32.3226 50.9396 31.8822 50.9556 31.4405C50.9216 30.4785 51.279 29.542 51.9507 28.8322C52.2602 28.4996 52.6399 28.2353 53.0642 28.0574C53.4885 27.8794 53.9474 27.7919 54.4097 27.8009C54.8464 27.7907 55.2805 27.8698 55.6834 28.033C56.0864 28.1961 56.4494 28.4397 56.7484 28.7479C57.064 29.0711 57.3098 29.4518 57.4714 29.868C57.633 30.2842 57.7073 30.7273 57.6897 31.1716V31.1556ZM47.6375 33.4108L47.5463 34.5865C47.0616 34.7002 46.5647 34.7582 46.066 34.759C44.8551 34.759 43.9332 34.4367 43.3001 33.792C42.6746 33.1574 42.3333 32.3093 42.3506 31.4325C42.3385 30.503 42.6998 29.6053 43.3582 28.9285C43.7128 28.5705 44.1432 28.2909 44.6198 28.1087C45.0965 27.9266 45.6082 27.8462 46.1199 27.8731C46.5323 27.871 46.9433 27.9195 47.3431 28.0176L47.1565 29.1974C46.7711 29.0739 46.3683 29.0089 45.9623 29.0047C45.6605 28.9822 45.3576 29.0302 45.0789 29.1446C44.8004 29.2592 44.5544 29.4369 44.3617 29.6628C44.0041 30.1249 43.8199 30.691 43.8392 31.268C43.8275 31.8795 44.0489 32.4737 44.4612 32.9372C44.6772 33.1752 44.9461 33.3623 45.2479 33.4847C45.5496 33.6071 45.8761 33.6614 46.2028 33.6435C46.6901 33.632 47.1731 33.5536 47.6375 33.4108Z" fill="#25262B"/>
<path fill-rule="evenodd" clip-rule="evenodd" d="M17.859 15.6935L11.4967 27.9274C10.1775 27.1903 9.00771 26.2177 8.04676 25.0589L8.91321 23.4104L10.4026 20.5294L11.8951 17.6516L13.3845 14.7707L14.8771 11.8866L16.3664 9.00871L17.859 6.12776L19.5 12.5L17.859 15.6935Z" fill="#25262B"/>
</g>
<defs>
<clipPath id="clip0_1_13">
<rect width="116" height="34.8" fill="white"/>
</clipPath>
</defs>
</svg>
