<svg width="17" height="17" viewBox="0 0 17 17" fill="none" xmlns="http://www.w3.org/2000/svg">
<path d="M5.95833 0C7.53863 0 9.05413 0.65629 10.1715 1.82448C11.2889 2.99268 11.9166 4.57709 11.9166 6.22917C11.9166 7.7721 11.3758 9.1904 10.4866 10.2829L10.7341 10.5417H11.4583L16.0416 15.3333L14.6666 16.7708L10.0833 11.9792V11.2221L9.83583 10.9633C8.79083 11.8929 7.43413 12.4583 5.95833 12.4583C4.37809 12.4583 2.86256 11.802 1.74516 10.6339C0.62775 9.4657 0 7.8812 0 6.22917C0 4.57709 0.62775 2.99268 1.74516 1.82448C2.86256 0.65629 4.37809 0 5.95833 0ZM5.95833 1.91667C3.66667 1.91667 1.83333 3.83333 1.83333 6.22917C1.83333 8.625 3.66667 10.5417 5.95833 10.5417C8.25003 10.5417 10.0833 8.625 10.0833 6.22917C10.0833 3.83333 8.25003 1.91667 5.95833 1.91667Z" fill="white"/>
</svg>
