<svg width="17" height="17" viewBox="0 0 17 17" fill="none" xmlns="http://www.w3.org/2000/svg">
<path d="M5.95833 0C7.53863 0 9.05413 0.65629 10.1715 1.82448C11.2889 2.99268 11.9166 4.57709 11.9166 6.22917C11.9166 7.7721 11.3758 9.1904 10.4866 10.2829L10.7341 10.5417H11.4583L16.0416 15.3333L14.6666 16.7708L10.0833 11.9792V11.2221L9.83583 10.9633C8.79083 11.8929 7.43413 12.4583 5.95833 12.4583C4.37809 12.4583 2.86256 11.802 1.74516 10.6339C0.62775 9.4657 0 7.8812 0 6.22917C0 4.57709 0.62775 2.99268 1.74516 1.82448C2.86256 0.65629 4.37809 0 5.95833 0ZM5.95833 1.91667C3.66667 1.91667 1.83333 3.83333 1.83333 6.22917C1.83333 8.625 3.66667 10.5417 5.95833 10.5417C8.25003 10.5417 10.0833 8.625 10.0833 6.22917C10.0833 3.83333 8.25003 1.91667 5.95833 1.91667Z" fill="#25262B"/>
<path d="M4.26705 7.1341C4.05682 7.1341 3.87642 7.05881 3.72585 6.90824C3.57528 6.75768 3.5 6.57728 3.5 6.36705C3.5 6.15682 3.57528 5.97643 3.72585 5.82586C3.87642 5.67529 4.05682 5.60001 4.26705 5.60001C4.47727 5.60001 4.65767 5.67529 4.80824 5.82586C4.95881 5.97643 5.03409 6.15682 5.03409 6.36705C5.03409 6.50626 4.99858 6.6341 4.92756 6.75057C4.85938 6.86705 4.76705 6.9608 4.65057 7.03182C4.53693 7.10001 4.40909 7.1341 4.26705 7.1341Z" fill="#25262B"/>
<path d="M7.57173 7.1341C7.36151 7.1341 7.18111 7.05881 7.03054 6.90824C6.87997 6.75768 6.80469 6.57728 6.80469 6.36705C6.80469 6.15682 6.87997 5.97643 7.03054 5.82586C7.18111 5.67529 7.36151 5.60001 7.57173 5.60001C7.78196 5.60001 7.96236 5.67529 8.11293 5.82586C8.26349 5.97643 8.33878 6.15682 8.33878 6.36705C8.33878 6.50626 8.30327 6.6341 8.23224 6.75057C8.16406 6.86705 8.07173 6.9608 7.95526 7.03182C7.84162 7.10001 7.71378 7.1341 7.57173 7.1341Z" fill="#25262B"/>
</svg>
