<svg width="173" height="34" viewBox="0 0 173 34" fill="none" xmlns="http://www.w3.org/2000/svg">
<path d="M163.83 0.237793C157.667 0.237793 153.721 3.05907 153.721 7.87649C153.721 12.6939 158.031 15.1241 163.83 15.1241C170.094 15.1241 172.729 13.2222 172.729 13.0752V6.68262H164.11V9.00936H169.496V11.8432C167.704 12.8595 163.83 12.6868 163.83 12.6868C160.255 12.6868 156.956 11.481 156.956 7.87649C156.956 4.68049 159.924 2.67673 163.83 2.67673C166.671 2.67673 168.704 3.27856 169.809 3.8096L171.139 1.55693C169.675 0.897361 167.184 0.237793 163.83 0.237793ZM0 0.486153V14.9389H11.5728C16.5508 14.9389 17.6729 12.7876 17.6729 10.5115C17.6729 9.36937 16.8873 7.92169 15.0391 7.32258C16.2683 6.60855 16.6531 5.69953 16.6531 4.52363C16.6531 1.61194 14.6584 0.486694 10.3782 0.486694H0V0.486153ZM144.876 0.490507V10.341L133.983 0.7612L133.688 0.505214H131.152V14.9515H134.385V4.94519L145.785 14.9455H148.108V0.491598H144.876V0.490507ZM46.542 0.499769V14.9357H62.0061V12.4978H49.7769V8.90043H58.6372V6.57151H49.7783V2.93816H61.9881V0.501401L46.5427 0.499769H46.542ZM77.1606 0.499769V2.93653H83.991V14.9488H87.2238V2.93761H94.0541V0.500856L77.1613 0.499224L77.1606 0.499769ZM67.9466 0.502491V14.9357H71.1794V0.502491H67.9466ZM23.6286 0.504669V14.9509H26.8634V8.99683L31.6577 8.99847L36.387 14.9395H40.2015L35.296 8.99847C38.0452 8.82418 40.3604 7.52029 40.3604 4.72025C40.3604 1.25574 36.9432 0.505214 33.765 0.505214H23.6279H23.6286V0.504669ZM100.265 0.504669V14.9542H114.539V12.5153H103.497V0.504124H100.265L100.265 0.504669ZM119.779 0.504669V14.9509H123.014V0.504669H119.779ZM3.16577 2.76932H10.2552C12.2098 2.76932 13.4604 3.38586 13.4604 4.57973C13.4604 5.29213 13.1965 6.52739 10.9814 6.52739L3.16577 6.52576V2.76932ZM26.8627 2.83413H33.8071C35.0314 2.83413 37.1359 3.09012 37.1359 4.92014C37.1359 6.46095 35.2242 6.67064 33.7871 6.67064L26.8627 6.669V2.83359V2.83413ZM3.16577 8.81056H11.1362C12.8752 8.81056 14.3689 9.1123 14.3689 10.7479C14.3689 12.3835 12.6078 12.658 11.5735 12.658H3.16577V8.81111V8.81056ZM75.1031 21.9813C72.8783 21.9813 71.1973 22.4257 70.2411 23.2628C69.6082 23.8173 69.3263 24.5177 69.4286 25.2851C69.4866 25.7328 69.7215 26.3886 70.5119 26.9751L70.789 27.1821L70.4801 27.3608C70.2439 27.4947 70.0518 27.626 69.8956 27.7622C69.2013 28.3569 68.8862 29.1379 68.9836 30.0197C69.1467 31.499 70.8346 33.0807 75.092 33.0807H75.1031C79.3577 33.0807 81.0498 31.499 81.2142 30.0197C81.3088 29.1363 80.9931 28.3569 80.3036 27.7622C80.1281 27.6146 79.9339 27.4811 79.7246 27.3646L79.413 27.1854L79.6921 26.9795C80.4874 26.3913 80.7229 25.7333 80.781 25.2851C80.8839 24.5182 80.6007 23.8173 79.9643 23.2628C79.0095 22.4251 77.3278 21.9813 75.1031 21.9813ZM89.2309 21.9813C87.0054 21.9813 85.3251 22.4257 84.3696 23.2628C83.7353 23.8173 83.4521 24.5161 83.5529 25.2851C83.6414 25.9338 84.0269 26.5345 84.6363 26.9751L84.9175 27.1821L84.6073 27.3608C84.3689 27.4947 84.1775 27.626 84.0207 27.7622C83.3277 28.3569 83.0126 29.1379 83.1087 30.0197C83.2724 31.499 84.9631 33.0807 89.2177 33.0807H89.2288C93.4834 33.0807 95.1741 31.499 95.3385 30.0197C95.4339 29.1347 95.1188 28.3558 94.4279 27.7638C94.2531 27.6156 94.0597 27.4817 93.8496 27.3646L93.538 27.1854L93.8192 26.9795C94.6138 26.3896 94.8473 25.7333 94.9074 25.2851C95.0083 24.515 94.7236 23.8162 94.0894 23.2628C93.1338 22.4251 91.4549 21.9813 89.2295 21.9813H89.2302H89.2309ZM63.3734 22.2705V32.8911H65.9788V22.2705H63.3734ZM101.096 22.2705L97.2358 28.8994L97.2178 30.7496H104.881V32.8846H107.235V30.749H108.773V28.8945H107.235V22.2705H101.096ZM75.1031 23.8358C76.5996 23.8358 77.7347 24.0792 78.2184 24.5035C78.4063 24.6669 78.474 24.8477 78.4429 25.0917C78.3655 25.6702 77.3029 26.2529 75.1031 26.2529C72.9032 26.2529 71.844 25.6702 71.7687 25.0939C71.7348 24.8483 71.8053 24.6653 71.9884 24.5019C72.4741 24.0776 73.6093 23.8352 75.1031 23.8352V23.8358ZM89.2309 23.8358C90.7246 23.8358 91.8598 24.0792 92.3455 24.5035C92.5327 24.6669 92.6011 24.8477 92.568 25.0917C92.4927 25.6702 91.43 26.2529 89.2309 26.2529C87.0317 26.2529 85.9718 25.6702 85.8924 25.0939C85.8613 24.8483 85.9318 24.6653 86.1169 24.5019C86.6006 24.0776 87.735 23.8352 89.2309 23.8352V23.8358ZM102.598 24.1375H104.88V28.8945H99.8274L102.599 24.1375H102.598ZM75.1031 28.2905C75.7187 28.2905 77.7866 28.3428 78.5687 29.0159C78.8167 29.2289 78.9093 29.4887 78.8685 29.8585C78.7594 30.8656 76.8448 31.2239 75.092 31.2239C73.3391 31.2239 71.4378 30.8656 71.3265 29.8585C71.2864 29.4892 71.3783 29.2283 71.6264 29.0159C72.1625 28.5552 73.429 28.2905 75.1031 28.2905ZM89.2309 28.2905C89.8451 28.2905 91.9116 28.3428 92.6937 29.0159C92.9431 29.2289 93.0364 29.4881 92.9957 29.8585C92.8858 30.8656 90.972 31.2239 89.2191 31.2239C87.4663 31.2239 85.5649 30.8656 85.4557 29.8574C85.4129 29.4898 85.5055 29.2311 85.7556 29.0159C86.2813 28.5622 87.583 28.2905 89.2309 28.2905Z" fill="#24262B"/>
</svg>
