<svg width="173" height="64" viewBox="0 0 173 64" fill="none" xmlns="http://www.w3.org/2000/svg">
<path d="M163.83 30.2378C157.667 30.2378 153.721 33.0591 153.721 37.8765C153.721 42.6939 158.031 45.1241 163.83 45.1241C170.094 45.1241 172.729 43.2222 172.729 43.0752V36.6826H164.11V39.0094H169.496V41.8432C167.704 42.8595 163.83 42.6868 163.83 42.6868C160.255 42.6868 156.956 41.481 156.956 37.8765C156.956 34.6805 159.924 32.6767 163.83 32.6767C166.671 32.6767 168.704 33.2786 169.809 33.8096L171.139 31.5569C169.675 30.8974 167.184 30.2378 163.83 30.2378ZM0 30.4862V44.9389H11.5728C16.5508 44.9389 17.6729 42.7876 17.6729 40.5115C17.6729 39.3694 16.8873 37.9217 15.0391 37.3226C16.2683 36.6085 16.6531 35.6995 16.6531 34.5236C16.6531 31.6119 14.6584 30.4867 10.3782 30.4867H0V30.4862ZM144.876 30.4905V40.341L133.983 30.7612L133.688 30.5052H131.152V44.9515H134.385V34.9452L145.785 44.9455H148.108V30.4916H144.876V30.4905ZM46.542 30.4998V44.9357H62.0061V42.4978H49.7769V38.9004H58.6372V36.5715H49.7783V32.9382H61.9881V30.5014L46.5427 30.4998H46.542ZM77.1606 30.4998V32.9365H83.991V44.9488H87.2238V32.9376H94.0541V30.5009L77.1613 30.4992L77.1606 30.4998ZM67.9466 30.5025V44.9357H71.1794V30.5025H67.9466ZM23.6286 30.5047V44.9509H26.8634V38.9968L31.6577 38.9985L36.387 44.9395H40.2015L35.296 38.9985C38.0452 38.8242 40.3604 37.5203 40.3604 34.7203C40.3604 31.2557 36.9432 30.5052 33.765 30.5052H23.6279H23.6286V30.5047ZM100.265 30.5047V44.9542H114.539V42.5153H103.497V30.5041H100.265L100.265 30.5047ZM119.779 30.5047V44.9509H123.014V30.5047H119.779ZM3.16577 32.7693H10.2552C12.2098 32.7693 13.4604 33.3859 13.4604 34.5797C13.4604 35.2921 13.1965 36.5274 10.9814 36.5274L3.16577 36.5258V32.7693ZM26.8627 32.8341H33.8071C35.0314 32.8341 37.1359 33.0901 37.1359 34.9201C37.1359 36.4609 35.2242 36.6706 33.7871 36.6706L26.8627 36.669V32.8336V32.8341ZM3.16577 38.8106H11.1362C12.8752 38.8106 14.3689 39.1123 14.3689 40.7479C14.3689 42.3835 12.6078 42.658 11.5735 42.658H3.16577V38.8111V38.8106ZM75.1031 51.9813C72.8783 51.9813 71.1973 52.4257 70.2411 53.2628C69.6082 53.8173 69.3263 54.5177 69.4286 55.2851C69.4866 55.7328 69.7215 56.3886 70.5119 56.9751L70.789 57.1821L70.4801 57.3608C70.2439 57.4947 70.0518 57.626 69.8956 57.7622C69.2013 58.3569 68.8862 59.1379 68.9836 60.0197C69.1467 61.499 70.8346 63.0807 75.092 63.0807H75.1031C79.3577 63.0807 81.0498 61.499 81.2142 60.0197C81.3088 59.1363 80.9931 58.3569 80.3036 57.7622C80.1281 57.6146 79.9339 57.4811 79.7246 57.3646L79.413 57.1854L79.6921 56.9795C80.4874 56.3913 80.7229 55.7333 80.781 55.2851C80.8839 54.5182 80.6007 53.8173 79.9643 53.2628C79.0095 52.4251 77.3278 51.9813 75.1031 51.9813ZM89.2309 51.9813C87.0054 51.9813 85.3251 52.4257 84.3696 53.2628C83.7353 53.8173 83.4521 54.5161 83.5529 55.2851C83.6414 55.9338 84.0269 56.5345 84.6363 56.9751L84.9175 57.1821L84.6073 57.3608C84.3689 57.4947 84.1775 57.626 84.0207 57.7622C83.3277 58.3569 83.0126 59.1379 83.1087 60.0197C83.2724 61.499 84.9631 63.0807 89.2177 63.0807H89.2288C93.4834 63.0807 95.1741 61.499 95.3385 60.0197C95.4339 59.1347 95.1188 58.3558 94.4279 57.7638C94.2531 57.6156 94.0597 57.4817 93.8496 57.3646L93.538 57.1854L93.8192 56.9795C94.6138 56.3896 94.8473 55.7333 94.9074 55.2851C95.0083 54.515 94.7236 53.8162 94.0894 53.2628C93.1338 52.4251 91.4549 51.9813 89.2295 51.9813H89.2302H89.2309ZM63.3734 52.2705V62.8911H65.9788V52.2705H63.3734ZM101.096 52.2705L97.2358 58.8994L97.2178 60.7496H104.881V62.8846H107.235V60.749H108.773V58.8945H107.235V52.2705H101.096ZM75.1031 53.8358C76.5996 53.8358 77.7347 54.0792 78.2184 54.5035C78.4063 54.6669 78.474 54.8477 78.4429 55.0917C78.3655 55.6702 77.3029 56.2529 75.1031 56.2529C72.9032 56.2529 71.844 55.6702 71.7687 55.0939C71.7348 54.8483 71.8053 54.6653 71.9884 54.5019C72.4741 54.0776 73.6093 53.8352 75.1031 53.8352V53.8358ZM89.2309 53.8358C90.7246 53.8358 91.8598 54.0792 92.3455 54.5035C92.5327 54.6669 92.6011 54.8477 92.568 55.0917C92.4927 55.6702 91.43 56.2529 89.2309 56.2529C87.0317 56.2529 85.9718 55.6702 85.8924 55.0939C85.8613 54.8483 85.9318 54.6653 86.1169 54.5019C86.6006 54.0776 87.735 53.8352 89.2309 53.8352V53.8358ZM102.598 54.1375H104.88V58.8945H99.8274L102.599 54.1375H102.598ZM75.1031 58.2905C75.7187 58.2905 77.7866 58.3428 78.5687 59.0159C78.8167 59.2289 78.9093 59.4887 78.8685 59.8585C78.7594 60.8656 76.8448 61.2239 75.092 61.2239C73.3391 61.2239 71.4378 60.8656 71.3265 59.8585C71.2864 59.4892 71.3783 59.2283 71.6264 59.0159C72.1625 58.5552 73.429 58.2905 75.1031 58.2905ZM89.2309 58.2905C89.8451 58.2905 91.9116 58.3428 92.6937 59.0159C92.9431 59.2289 93.0364 59.4881 92.9957 59.8585C92.8858 60.8656 90.972 61.2239 89.2191 61.2239C87.4663 61.2239 85.5649 60.8656 85.4557 59.8574C85.4129 59.4898 85.5055 59.2311 85.7556 59.0159C86.2813 58.5622 87.583 58.2905 89.2309 58.2905Z" fill="#24262B"/>
<path d="M88.9807 12.0705C88.0245 11.607 88.9627 10.9131 89.8533 10.9131C91.2787 10.9131 92.5735 11.8919 92.5735 11.8919C92.5735 11.8919 90.1062 12.6179 88.9807 12.0705ZM75.7165 21.8518C72.4181 22.5468 73.2928 16.8394 77.4811 12.2796C81.7496 7.63379 85.0964 6.2384 85.0964 6.2384C84.373 13.0236 79.2326 21.1089 75.7165 21.8518ZM96.2761 3.41495C94.1764 2.6312 91.2034 3.0228 88.4909 3.80383L88.4833 3.79675C88.6878 0.855643 88.1129 0 88.1129 0L85.0232 0.681355C85.0232 0.681355 85.4322 2.38828 85.2284 5.02221H85.2304C77.1979 8.6866 71.7839 14.8139 70.2922 18.9342C68.6651 23.4215 73.2016 24.9465 77.021 22.738C86.4471 17.2844 88.363 4.87352 88.363 4.87352C91.2034 4.18835 93.4647 4.55599 94.7941 5.45901C98.1339 7.72693 93.7998 11.2121 93.7998 11.2121C93.7998 11.2121 92.6833 10.1811 90.5705 10.0297C87.194 9.7906 85.4799 12.9871 89.9597 13.3292C90.708 13.3858 92.6964 13.1598 93.4364 12.8711C94.1854 13.9648 93.9594 19.0317 89.6212 20.5294C85.7251 21.8753 84.279 19.987 84.279 19.987C84.1574 19.987 82.178 22.0392 82.3016 22.2298C82.3016 22.2298 84.3654 24.6584 88.8916 23.6165C92.4615 22.7957 94.1791 20.3415 95.0925 18.5801C96.6174 15.6478 95.5181 13.0656 94.9288 12.3831C100.862 9.11796 99.9918 4.67635 96.2768 3.41495" fill="#24262B"/>
</svg>
