<svg width="173" height="64" viewBox="0 0 173 64" fill="none" xmlns="http://www.w3.org/2000/svg">
<path d="M57.5642 11.1877C54.2381 11.1877 51.9622 12.2556 50.2787 14.6308C48.9634 12.5467 46.2831 11.1877 43.3686 11.1877C40.7774 11.1877 39.0612 11.8788 37.3464 13.683V13.5647C37.3464 12.9276 37.1004 12.3167 36.6625 11.8662C36.2246 11.4158 35.6306 11.1627 35.0112 11.1627C34.3918 11.1627 33.7978 11.4158 33.3599 11.8662C32.9218 12.3167 32.6758 12.9276 32.6758 13.5647V33.3923C32.6758 34.0733 32.9388 34.7264 33.407 35.2079C33.8751 35.6894 34.51 35.9599 35.1721 35.9599C35.8342 35.9599 36.4693 35.6894 36.9374 35.2079C37.4055 34.7264 37.6686 34.0733 37.6686 33.3923V22.2266C37.6686 17.9448 39.2771 15.9505 42.7317 15.9505C45.799 15.9505 47.354 17.9097 47.354 21.7727V33.3923C47.354 34.0733 47.6171 34.7264 48.0852 35.2079C48.5535 35.6894 49.1884 35.9599 49.8505 35.9599C50.5126 35.9599 51.1475 35.6894 51.6156 35.2079C52.0838 34.7264 52.3468 34.0733 52.3468 33.3923V22.1857C52.3468 17.8154 53.8011 15.9505 57.2091 15.9505C60.4087 15.9505 62.0317 18.0761 62.0317 22.2681V33.3923C62.0317 34.0733 62.2947 34.7264 62.7629 35.2079C63.231 35.6894 63.8659 35.9599 64.528 35.9599C65.1901 35.9599 65.825 35.6894 66.2932 35.2079C66.7614 34.7264 67.0243 34.0733 67.0243 33.3923V21.1988C67.017 14.9317 63.4835 11.1877 57.5642 11.1877Z" fill="#F3F2F1"/>
<path d="M96.3947 11.1877C93.069 11.1877 90.7931 12.2556 89.1099 14.6308C87.7943 12.5467 85.114 11.1877 82.1997 11.1877C79.6083 11.1877 77.8922 11.8788 76.1775 13.683V13.5647C76.1775 12.9276 75.9315 12.3167 75.4935 11.8662C75.0555 11.4158 74.4615 11.1627 73.8421 11.1627C73.2228 11.1627 72.6288 11.4158 72.1908 11.8662C71.7529 12.3167 71.5068 12.9276 71.5068 13.5647V33.3923C71.5068 34.0733 71.7699 34.7264 72.238 35.2079C72.7061 35.6894 73.3411 35.9599 74.0032 35.9599C74.6652 35.9599 75.3002 35.6894 75.7683 35.2079C76.2364 34.7264 76.4995 34.0733 76.4995 33.3923V22.2266C76.4995 17.9448 78.1081 15.9505 81.5626 15.9505C84.6299 15.9505 86.1851 17.9097 86.1851 21.7727V33.3923C86.1851 34.0733 86.448 34.7264 86.9163 35.2079C87.3844 35.6894 88.0193 35.9599 88.6814 35.9599C89.3435 35.9599 89.9784 35.6894 90.4466 35.2079C90.9147 34.7264 91.1777 34.0733 91.1777 33.3923V22.1857C91.1777 17.8154 92.632 15.9505 96.04 15.9505C99.2396 15.9505 100.863 18.0761 100.863 22.2681V33.3923C100.863 34.0733 101.125 34.7264 101.594 35.2079C102.062 35.6894 102.697 35.9599 103.359 35.9599C104.021 35.9599 104.656 35.6894 105.124 35.2079C105.592 34.7264 105.855 34.0733 105.855 33.3923V21.1988C105.848 14.9317 102.314 11.1877 96.3947 11.1877Z" fill="#F3F2F1"/>
<path d="M128.529 13.6076V14.2979C126.782 12.2583 124.267 11.1879 121.187 11.1879C114.339 11.1879 109.175 16.6942 109.175 23.9955C109.175 30.7389 114.522 36.0213 121.347 36.0213C124.32 36.0213 126.874 34.836 128.529 32.7283V33.4971C128.529 34.1781 128.792 34.8311 129.26 35.3128C129.728 35.7942 130.363 36.0648 131.025 36.0648C131.687 36.0648 132.322 35.7942 132.79 35.3128C133.258 34.8311 133.521 34.1781 133.521 33.4971V13.6072C133.521 12.9702 133.275 12.3595 132.837 11.9093C132.398 11.4591 131.804 11.2064 131.185 11.2067H130.865C130.558 11.2065 130.255 11.2685 129.971 11.3891C129.688 11.5097 129.43 11.6865 129.213 11.9094C128.997 12.1324 128.824 12.3971 128.707 12.6885C128.589 12.9798 128.529 13.2921 128.529 13.6076ZM128.609 23.666C128.609 27.8524 125.333 31.2583 121.307 31.2583C117.436 31.2583 114.166 27.7815 114.166 23.666C114.166 19.4119 117.369 15.9502 121.307 15.9502C125.47 15.9502 128.609 19.2671 128.609 23.666Z" fill="#F3F2F1"/>
<path d="M25.8209 27.6872L25.8008 27.6851C24.9552 27.5726 24.3016 28.0322 23.3966 28.6669C22.0651 29.6014 20.4079 30.7644 17.2038 30.9032C14.0591 30.9395 11.2678 29.9185 9.12369 27.9419C7.19833 26.1666 5.7297 23.6703 5.24519 20.9131C4.33982 15.7635 6.53276 9.46664 13.1558 7.01188C14.4582 6.56707 15.828 6.36786 17.1992 6.42386C19.6957 6.52692 22.0548 7.4538 24.0252 9.10393C24.519 9.515 25.1499 9.71045 25.7823 9.64831C26.4146 9.58616 26.9981 9.27138 27.4072 8.77159C28.0131 7.92066 28.141 7.0842 27.7796 6.24014C26.5873 3.45194 20.6692 1.60797 18.6211 1.37761C17.9367 1.28366 17.247 1.23655 16.5565 1.23657C12.6538 1.23657 8.815 2.73663 5.77435 5.49988C2.0618 8.87249 -0.0421741 13.6707 0.00177594 18.6634C-0.0569414 22.6634 1.34208 26.6432 3.94216 29.8791C6.5563 33.1339 10.0853 35.2526 13.8798 35.846C14.7673 36.0046 15.6663 36.0841 16.5671 36.0841C20.4512 36.0841 24.2025 34.6646 27.1298 32.0873C27.885 31.466 28.1614 30.4621 27.8619 29.4582C27.5585 28.4434 26.7768 27.7654 25.8209 27.6872Z" fill="#F3F2F1"/>
<path d="M23.8326 15.4214C23.5106 15.4843 23.2038 15.6124 22.9302 15.7981C22.6566 15.9839 22.4214 16.2236 22.2385 16.5034C21.8526 17.0915 21.3323 17.5733 20.7233 17.9064C20.1142 18.2395 19.4349 18.4136 18.7451 18.4136C18.0553 18.4136 17.3759 18.2395 16.767 17.9064C16.1579 17.5733 15.6375 17.0915 15.2518 16.5034C15.0687 16.2236 14.8337 15.984 14.56 15.7983C14.2864 15.6127 13.9797 15.4846 13.6576 15.4217C13.5001 15.3906 13.3401 15.3748 13.1798 15.3748C12.7272 15.3761 12.2835 15.5039 11.8961 15.7445C11.5087 15.9852 11.1923 16.3297 10.9805 16.741C10.7688 17.1524 10.6698 17.6152 10.694 18.08C10.7183 18.5449 10.865 18.9941 11.1183 19.3798C11.9613 20.663 13.0974 21.7139 14.4271 22.4403C15.7568 23.1668 17.2395 23.5466 18.7451 23.5466C20.2508 23.5466 21.7334 23.1668 23.0631 22.4403C24.3927 21.7139 25.5289 20.663 26.3719 19.3798C26.648 18.9593 26.7969 18.4641 26.7995 17.9566C26.8022 17.4492 26.6587 16.9523 26.387 16.5286C26.1153 16.1051 25.7276 15.7738 25.2729 15.5766C24.8183 15.3795 24.3171 15.3258 23.8326 15.4214Z" fill="#F3F2F1"/>
<path d="M141.576 31.9821C141.576 31.4759 141.24 31.0148 140.417 31.0148H139.292V34.2853H139.805V32.9725H140.382L141.141 34.2853H141.736L140.896 32.8977C141.353 32.7528 141.576 32.4258 141.576 31.9821ZM139.804 32.5332V31.4725H140.472C140.826 31.4725 141.044 31.6455 141.044 31.9868C141.044 32.4164 140.767 32.5332 140.463 32.5332H139.804Z" fill="#F3F2F1"/>
<path d="M140.332 29.5753C139.727 29.5756 139.136 29.7603 138.633 30.1062C138.13 30.452 137.738 30.9433 137.507 31.5181C137.276 32.0929 137.215 32.7254 137.333 33.3355C137.451 33.9455 137.742 34.5061 138.17 34.9459C138.598 35.3858 139.143 35.6856 139.736 35.807C140.329 35.9287 140.944 35.8666 141.503 35.6288C142.062 35.391 142.539 34.9881 142.876 34.471C143.212 33.954 143.392 33.3461 143.392 32.724C143.392 31.8893 143.069 31.0889 142.495 30.4987C141.921 29.9083 141.143 29.5762 140.332 29.5753ZM140.332 35.4139C139.814 35.4139 139.308 35.256 138.878 34.9603C138.448 34.6646 138.112 34.2443 137.914 33.7526C137.716 33.2608 137.665 32.7198 137.766 32.1978C137.867 31.6758 138.116 31.1964 138.482 30.82C138.848 30.4437 139.314 30.1875 139.821 30.0836C140.329 29.9799 140.855 30.0332 141.333 30.237C141.811 30.4407 142.22 30.7856 142.507 31.2282C142.795 31.6707 142.948 32.1911 142.948 32.7233C142.947 33.4366 142.671 34.1205 142.181 34.6249C141.69 35.1294 141.025 35.4131 140.332 35.4139Z" fill="#F3F2F1"/>
</svg>
