<svg width="173" height="87" viewBox="0 0 173 87" fill="none" xmlns="http://www.w3.org/2000/svg">
<path d="M10.6853 11.4303C11.0455 11.4529 11.4044 11.4748 11.7527 11.4465C10.4942 11.1821 8.26027 10.5048 7.69614 11.7795C7.36558 12.5254 7.22543 13.7429 7.39106 15.7445C7.55032 17.6683 7.99484 20.3719 8.83219 24.1643C11.8857 37.9942 10.9174 39.9335 9.23423 43.3045C8.95606 43.8617 8.65806 44.4584 8.34096 45.1831C14.8819 37.9263 9.93568 24.5425 9.80473 23.9494C8.98154 20.2199 8.5441 17.5594 8.38697 15.6625C8.2362 13.8433 8.34379 12.7835 8.60993 12.1818C8.98862 11.3256 9.84154 11.3787 10.6853 11.431V11.4303Z" fill="#F3F2F1"/>
<path d="M20.1844 81.1138C19.5042 82.9082 18.8445 84.2699 18.3583 85.2215C18.3583 85.2215 18.3583 85.2222 18.3576 85.2229C18.337 85.2625 18.3172 85.3014 18.2981 85.3396C18.296 85.3438 18.2939 85.3473 18.2917 85.3516C18.274 85.3862 18.2563 85.4209 18.2386 85.4541C18.2344 85.4626 18.2294 85.4711 18.2252 85.4796C18.2096 85.5093 18.1948 85.5389 18.1799 85.5672C18.1721 85.5821 18.165 85.5962 18.1572 85.6104C18.1466 85.6309 18.136 85.6514 18.1254 85.6712C17.8423 86.2156 17.6476 86.579 17.5889 86.7656C24.127 76.4164 41.6739 46.8866 35.9115 35.2972C34.2227 31.9007 31.4537 30.4881 29.1193 29.2042C28.9048 26.3019 29.3231 23.7411 29.6728 21.6094C30.1407 18.7538 30.5406 10.7299 25.7776 12.4366C29.2651 11.4419 29.0393 19.3088 28.6889 21.4496C28.4964 22.6247 28.1623 26.0424 28.4405 28.8245C26.2533 27.5738 24.6274 26.2708 24.987 23.1726C25.0238 23.0772 25.0585 22.9832 25.0925 22.8905C25.1031 22.8608 25.113 22.8319 25.1236 22.8029C25.1463 22.7399 25.1689 22.677 25.1902 22.6148C25.2022 22.5795 25.2135 22.5455 25.2248 22.5109C25.2432 22.455 25.2624 22.3999 25.2793 22.3447C25.2914 22.3087 25.302 22.2726 25.3133 22.2366C25.3296 22.1842 25.3459 22.1326 25.3614 22.081C25.3728 22.0442 25.3827 22.0082 25.3933 21.9714C25.4075 21.9219 25.4216 21.8724 25.4358 21.8229C25.4457 21.7862 25.4549 21.7501 25.4648 21.7141C25.4775 21.666 25.4903 21.6186 25.5016 21.5713C25.5108 21.5352 25.5193 21.4998 25.5278 21.4638C25.5391 21.4171 25.5497 21.3712 25.5603 21.3259C25.5681 21.2906 25.5759 21.2552 25.5837 21.2199C25.5936 21.1753 25.6028 21.1301 25.6113 21.0862C25.6184 21.0516 25.6248 21.017 25.6311 20.9823C25.6396 20.9385 25.6474 20.8954 25.6545 20.8522C25.6601 20.8183 25.6658 20.7843 25.6715 20.7511C25.6785 20.7087 25.6849 20.6663 25.6906 20.6246C25.6955 20.5913 25.6998 20.5588 25.7047 20.5263C25.7104 20.4846 25.7154 20.4436 25.7203 20.4033C25.7239 20.3715 25.7281 20.3389 25.7309 20.3078C25.7352 20.2675 25.7387 20.2279 25.7423 20.1876C25.7451 20.1565 25.7479 20.1254 25.75 20.095C25.7529 20.0554 25.755 20.0165 25.7571 19.9776C25.7585 19.948 25.7607 19.9176 25.7621 19.8886C25.7635 19.8497 25.7649 19.8115 25.7656 19.7733C25.7663 19.745 25.767 19.7161 25.7677 19.6885C25.7677 19.6496 25.7677 19.6121 25.7677 19.5739C25.7677 19.5471 25.7677 19.5202 25.767 19.494C25.7663 19.4552 25.7642 19.4163 25.7628 19.3781C25.7614 19.3541 25.7614 19.3293 25.7599 19.3053C25.7571 19.2622 25.7536 19.2197 25.75 19.1773C25.7486 19.1589 25.7472 19.1405 25.7458 19.1229C25.7401 19.0635 25.7331 19.0055 25.7253 18.9482C25.7224 18.9263 25.7189 18.9058 25.7154 18.8846C25.7097 18.8493 25.7047 18.8132 25.6984 18.7786C25.6941 18.7531 25.6885 18.7284 25.6835 18.7029C25.6778 18.6732 25.6722 18.6435 25.6658 18.6145C25.6601 18.5884 25.6531 18.5622 25.6467 18.536C25.6403 18.5092 25.634 18.4823 25.6269 18.4562C25.6198 18.43 25.612 18.4038 25.6042 18.3777C25.5971 18.3529 25.5901 18.3282 25.5823 18.3034C25.5738 18.2773 25.5653 18.2518 25.5561 18.2264C25.5483 18.203 25.5405 18.1797 25.532 18.1571C25.5228 18.1316 25.5129 18.1062 25.5023 18.0807C25.4938 18.0588 25.4853 18.0376 25.4761 18.0164C25.4655 17.9909 25.4542 17.9669 25.4428 17.9422C25.4336 17.9217 25.4244 17.9019 25.4145 17.8821C25.4025 17.8573 25.3905 17.8333 25.3777 17.8092C25.3678 17.7901 25.3579 17.7718 25.348 17.7534C25.3345 17.7293 25.3211 17.706 25.3077 17.682C25.2977 17.6643 25.2871 17.6473 25.2765 17.6304C25.2624 17.607 25.2475 17.5837 25.2326 17.5611C25.222 17.5448 25.2114 17.5293 25.2008 17.5137C25.1852 17.4904 25.1689 17.4678 25.1526 17.4458C25.142 17.4317 25.1314 17.4176 25.1201 17.4034C25.1024 17.3808 25.0847 17.3582 25.067 17.3362C25.0564 17.3235 25.0458 17.3115 25.0351 17.2988C25.016 17.2762 24.9962 17.2542 24.9764 17.2323C24.9665 17.2217 24.9566 17.2111 24.9467 17.2012C24.9254 17.1786 24.9035 17.156 24.8815 17.1347C24.873 17.1263 24.8646 17.1185 24.8561 17.1107C24.8313 17.0874 24.8072 17.0648 24.7817 17.0421C24.7768 17.0379 24.7718 17.0336 24.7669 17.0294C24.5397 16.8343 24.2799 16.6801 23.9911 16.5677C23.9883 16.5663 23.9854 16.5656 23.9826 16.5642C23.9444 16.5493 23.9055 16.5352 23.8658 16.5218C23.8609 16.5204 23.8559 16.5182 23.851 16.5168C23.8127 16.5041 23.7738 16.4921 23.7342 16.4801C23.7285 16.4786 23.7221 16.4765 23.7165 16.4751C23.6775 16.4638 23.6379 16.4532 23.5983 16.4433C23.5919 16.4419 23.5855 16.4398 23.5792 16.4383C23.5395 16.4284 23.4992 16.42 23.4581 16.4115C23.4517 16.4101 23.4447 16.4086 23.4383 16.4072C23.3972 16.3987 23.3555 16.3917 23.3137 16.3846C23.3073 16.3839 23.301 16.3825 23.2953 16.3818C23.2528 16.3747 23.2097 16.3691 23.1665 16.3634C23.1608 16.3634 23.1552 16.362 23.1502 16.3613C23.1056 16.3556 23.0603 16.3514 23.015 16.3471C23.0108 16.3471 23.0072 16.3471 23.003 16.3464C22.9556 16.3422 22.9081 16.3394 22.8607 16.3365C22.8586 16.3365 22.8572 16.3365 22.8551 16.3365C22.0906 16.2984 21.2214 16.4532 20.3019 16.7926C20.3019 16.7926 20.3012 16.7926 20.3005 16.7926C20.0754 16.876 19.8475 16.9693 19.6175 17.0747C17.2562 14.9423 14.9961 15.2668 13.5982 16.5854C8.75596 21.1513 15.5992 28.1931 17.7984 31.9106C26.4388 57.5455 23.1219 73.3571 20.1823 81.1095C20.1823 81.1109 20.1809 81.1123 20.1809 81.113L20.1844 81.1138Z" fill="#F3F2F1"/>
<path d="M3.95688 9.57237C3.80965 8.5366 10.466 6.73513 18.8247 5.54805C27.1833 4.36169 34.0789 4.24008 34.2261 5.27585C34.3196 5.93126 31.6879 6.8935 27.6257 7.81191C33.6769 6.6715 37.7567 5.36847 37.6442 4.46138C37.5104 3.38601 31.5215 3.20714 23.4956 3.92617C23.0999 2.30569 21.9228 0.908637 20.2332 0.303434C17.5584 -0.655276 14.6117 0.733298 13.6519 3.4051C13.4403 3.99475 13.3433 4.59783 13.3482 5.1896C5.51691 6.44313 -0.130084 8.05371 0.00227902 9.11847C0.0758924 9.71165 1.93251 10.0326 4.92942 10.0793C4.3306 9.96264 3.98873 9.79437 3.95758 9.57237H3.95688Z" fill="#F3F2F1"/>
<path d="M142.502 62.319C140.791 64.602 137.035 72.4717 135.031 74.2209C134.363 74.8035 132.193 76.1157 133.028 72.0836C133.612 69.363 138.244 61.979 138.453 60.0849C138.578 58.8214 137.869 57.1218 136.283 57.6075C133.529 58.4821 129.48 63.1455 127.727 66.0598C128.478 64.2138 128.937 63.4368 128.895 61.8333C128.856 60.3677 127.222 59.9823 126.72 60.4716C125.829 61.0697 125.054 62.9327 123.052 64.7964C122.426 65.379 121.8 65.8166 121.216 66.1079C121.55 64.7476 121.758 63.3385 121.758 62.319C121.758 58.8695 120.256 57.558 118.378 57.6068C116.133 57.6542 113.449 60.4433 114.934 64.0653C113.372 66.4522 111.501 69.5313 110.406 69.6543C109.363 69.7999 109.781 67.9539 110.114 66.3511C110.573 64.2138 111.7 62.4166 111.867 61.2019C111.992 60.4249 111.575 59.8904 110.74 60.3762C110.651 60.444 110.561 60.5267 110.472 60.6222C108.899 62.0178 106.268 67.2922 104.02 71.501C102.017 75.2899 100.097 77.2815 100.264 74.3184C100.431 71.6466 102.894 66.9832 104.855 63.2424C105.398 62.2222 106.316 59.5504 103.728 58.5789C100.18 57.2674 95.4643 65.0396 95.0467 66.1086C95.7977 63.6793 96.2153 60.9594 96.7164 59.9392C99.3042 58.6277 111.032 44.7342 111.032 39.6331C111.032 37.9327 108.82 37.5446 107.401 38.176C106.692 38.4672 104.187 39.2442 100.473 46.1914C97.4766 51.2762 95.0438 57.8698 93.6034 62.5686C92.2536 64.3927 90.9002 65.6187 87.8269 67.372C87.4928 66.2062 86.7 64.9435 85.949 63.4368C85.4061 62.3678 85.4061 61.3476 85.5732 60.6674C85.7402 60.0361 86.1989 59.3071 86.6583 58.6758C86.8671 57.7531 86.6165 56.1984 85.6985 56.9754C85.6985 56.9754 84.113 58.5782 84.0294 60.1329C84.0117 60.4787 83.9431 60.7565 84.0167 61.2302C82.1424 63.4036 79.8859 68.5188 77.9776 71.7916C75.4315 76.115 75.5151 68.0027 79.3132 62.2702C80.6906 60.2298 79.1462 59.9873 78.5205 60.0354C77.894 60.0354 77.2266 61.4444 76.6008 62.6103C75.3905 64.4075 73.846 66.6912 73.1368 67.4682C71.8429 68.8773 70.9248 66.1079 72.5528 63.0472C74.7648 58.9183 77.853 59.6953 77.853 59.6953C77.853 59.6953 79.6891 59.6953 77.2683 58.9664C75.0981 58.335 73.0533 59.3552 71.9682 60.5211C71.7034 60.8032 71.4366 61.1546 71.1853 61.554C67.5514 64.1467 63.9125 64.3955 59.5728 64.3107C59.7398 63.825 59.9069 63.2905 60.0739 62.8047C64.0809 50.6116 68.8389 40.07 67.4197 39.0498C67.4197 39.0498 67.0021 37.6895 65.6664 40.5077C64.4143 43.1795 61.0337 54.5468 57.3191 64.2626C55.5665 64.2138 53.688 64.165 51.6848 64.2138C38.9136 64.6507 37.0358 72.9581 36.6182 76.1637C37.3692 72.9574 40.5409 65.1365 50.9749 64.8933C53.1451 64.8445 55.1482 64.8933 57.0268 64.8933C56.1087 67.2738 55.1482 69.6055 54.2302 71.5971C50.0986 80.4871 45.5494 81.5073 45.5494 81.5073C45.5494 81.5073 47.302 82.8189 50.0569 80.7784C52.6029 78.8836 56.2758 73.3944 59.3222 64.942C64.0717 64.9809 67.7637 64.7731 70.6721 62.4838C69.8001 64.293 69.3733 66.6092 70.5079 68.0996C72.0942 70.1888 73.7214 67.8571 75.4329 65.4278C75.3912 65.6222 75.3077 65.8166 75.2659 66.0103C73.7214 70.917 75.0989 73.1999 76.6016 73.4912C77.9372 73.7337 79.1894 70.8194 81.4848 66.4961C82.4333 64.7448 82.9719 63.5902 84.1646 61.8404C84.372 62.5071 84.801 63.4785 85.6588 65.0389C86.201 66.0591 86.5351 66.9818 86.6604 67.9051C86.1182 68.1964 85.5753 68.5365 84.9078 68.8766C80.2751 71.3052 77.1034 74.4634 79.1065 77.3777C80.5675 79.4662 85.1166 78.2035 87.2451 74.2689C88.4972 71.986 88.5807 70.1393 87.9543 67.8563C89.9928 66.7294 91.8742 65.4023 93.241 63.7889C92.7378 65.5218 92.3987 66.9019 92.2536 67.7107C91.5026 70.3825 91.9613 71.4996 93.631 71.3052C94.4238 68.3421 95.5924 66.2528 97.471 63.4354C100.517 58.8688 104.357 57.3148 103.189 61.0061C102.229 64.0668 96.8035 72.7135 99.0154 75.6285C99.7664 76.6488 101.52 77.2801 103.815 73.1024C105.781 69.4917 107.504 66.1164 108.856 63.7203C107.959 66.3843 107.676 69.6656 109.325 70.2849C110.905 70.8505 112.366 69.1283 114.206 66.3179C113.225 69.3623 113.639 73.0628 116.295 73.1512C118.34 73.2487 120.135 69.9936 121.053 66.7386C121.596 66.5441 122.096 66.3016 122.555 65.9616C124.519 64.5737 125.658 62.3636 126.788 60.9722C126.76 61.4282 126.517 62.3975 125.644 64.4556C124.099 68.1476 124.6 68.9246 124.767 69.2647C125.185 70.0905 126.145 70.0905 126.312 69.7504C127.146 68.2445 128.148 66.3016 130.068 63.7267C132.906 59.9378 136.955 57.0716 136.746 58.6744C136.537 60.0834 130.194 69.5072 131.153 73.5881C131.654 75.6285 133.324 75.9686 134.409 75.4341C138.081 73.7337 142.088 61.3462 145.385 60.4235C145.385 60.4235 144.593 59.5009 142.505 62.3183L142.502 62.319ZM106.4 40.9927C109.113 37.7864 110.908 38.7578 109.948 41.3815C108.445 45.5593 102.143 54.498 96.9677 59.0639C98.595 54.0604 103.353 44.5878 106.4 40.9927ZM82.1098 76.8927C80.5654 77.9129 79.3139 77.3784 79.1051 75.678C78.8128 73.2007 82.2351 70.6257 86.1168 68.6828C86.3256 68.586 86.5344 68.5372 86.7425 68.4396C87.0766 72.6662 83.6961 75.8725 82.1098 76.8927ZM117.753 71.8891C115.959 73.7352 114.915 71.1602 115.457 68.7804C115.666 67.9058 116 67.0313 116.417 66.1574C117.544 67.08 118.963 67.2264 120.341 66.9344C119.631 69.0717 118.63 70.9665 117.753 71.8891ZM120.549 66.3511C119.046 66.7888 117.669 66.4487 116.709 65.5741C117.71 63.6312 118.921 62.1253 118.921 62.0765C118.987 61.501 118.922 60.5918 118.336 60.3316C118.364 60.3139 118.392 60.2956 118.42 60.2793C118.351 60.2793 118.285 60.2835 118.221 60.2906C118.088 60.2545 117.933 60.2475 117.751 60.2793C117.486 60.3182 116.877 61.033 116.114 62.3261C116 62.4901 115.879 62.6655 115.748 62.8542C115.654 62.9886 115.557 63.13 115.458 63.2756C115.29 62.5332 115.303 61.6742 115.498 60.8138C115.915 59.1622 118.253 56.9273 120.214 58.8709C121.675 60.28 121.424 63.4375 120.548 66.3518L120.549 66.3511Z" fill="#F3F2F1"/>
<path d="M112.37 58.3351C112.955 58.5295 113.956 57.8493 114.499 56.5378C115 55.3232 113.497 55.1288 113.038 55.4208C112.369 55.8577 112.62 56.0521 112.203 56.9755C111.827 57.8013 111.869 58.1413 112.37 58.3358V58.3351Z" fill="#F3F2F1"/>
<path d="M53.3567 54.7405C57.53 51.4854 57.3212 44.9279 57.2384 44.9759C56.779 50.4171 48.9328 59.5984 43.5492 54.5461C38.0402 49.3481 43.2568 32.8797 66.462 37.6895C73.766 39.1954 87.9975 39.7787 92.5049 30.4023C92.5049 30.4023 90.46 34.0455 84.784 35.9891C81.6958 37.0093 78.1899 37.8839 65.2099 35.9403C51.4371 33.8999 44.1749 40.4581 42.3805 43.6157C37.6226 51.9223 44.5507 61.7357 53.3574 54.7398L53.3567 54.7405Z" fill="#F3F2F1"/>
</svg>
