<svg width="131" height="60" viewBox="0 0 131 60" fill="none" xmlns="http://www.w3.org/2000/svg">
<path d="M123.994 28.7611C119.346 28.7611 116.371 31.4446 116.371 36.0268C116.371 40.6089 119.621 42.9204 123.994 42.9204C128.717 42.9204 130.704 41.1114 130.704 40.9715V34.8912H124.205V37.1043H128.266V39.7997C126.915 40.7664 123.994 40.6022 123.994 40.6022C121.298 40.6022 118.811 39.4552 118.811 36.0268C118.811 32.9868 121.048 31.0809 123.994 31.0809C126.136 31.0809 127.669 31.6534 128.502 32.1585L129.505 30.0158C128.401 29.3885 126.523 28.7611 123.994 28.7611ZM0.460938 28.9973V42.7443H9.18719C12.9408 42.7443 13.7868 40.698 13.7868 38.5331C13.7868 37.4467 13.1945 36.0698 11.8009 35.4999C12.7277 34.8207 13.0179 33.9561 13.0179 32.8376C13.0179 30.0681 11.5138 28.9979 8.28644 28.9979H0.460938V28.9973ZM109.702 29.0015V38.3709L101.488 29.259L101.266 29.0155H99.3536V42.7562H101.791V33.2386L110.387 42.7505H112.139V29.0025H109.702V29.0015ZM35.5551 29.0103V42.7412H47.2154V40.4224H37.9943V37.0007H44.6752V34.7855H37.9953V31.3296H47.2019V29.0118L35.5556 29.0103H35.5551ZM58.6424 29.0103V31.328H63.7927V42.7536H66.2303V31.3291H71.3807V29.0113L58.6429 29.0098L58.6424 29.0103ZM51.6947 29.0129V42.7412H54.1324V29.0129H51.6947ZM18.2776 29.015V42.7557H20.7168V37.0924L24.3318 37.0939L27.8979 42.7448H30.7741L27.0752 37.0939C29.1482 36.9282 30.894 35.688 30.894 33.0247C30.894 29.7293 28.3172 29.0155 25.9208 29.0155H18.2771H18.2776V29.015ZM76.0642 29.015V42.7588H86.8269V40.439H78.5008V29.0144H76.0637L76.0642 29.015ZM90.778 29.015V42.7557H93.2171V29.015H90.778ZM2.84802 31.169H8.1937C9.66753 31.169 10.6105 31.7554 10.6105 32.891C10.6105 33.5686 10.4115 34.7435 8.74124 34.7435L2.84802 34.742V31.169ZM20.7163 31.2307H25.9525C26.8757 31.2307 28.4626 31.4741 28.4626 33.2148C28.4626 34.6803 27.0211 34.8798 25.9374 34.8798L20.7163 34.8782V31.2301V31.2307ZM2.84802 36.9152H8.85794C10.1692 36.9152 11.2956 37.2022 11.2956 38.7579C11.2956 40.3136 9.96761 40.5747 9.18771 40.5747H2.84802V36.9157V36.9152ZM57.091 49.4427C55.4134 49.4427 54.1459 49.8654 53.4249 50.6617C52.9477 51.189 52.7351 51.8552 52.8122 52.5852C52.856 53.011 53.0331 53.6347 53.6291 54.1927L53.838 54.3895L53.6051 54.5595C53.427 54.6869 53.2821 54.8118 53.1644 54.9413C52.6408 55.507 52.4033 56.2499 52.4767 57.0886C52.5997 58.4956 53.8724 60 57.0826 60H57.091C60.2991 60 61.5749 58.4956 61.6989 57.0886C61.7703 56.2483 61.5322 55.507 61.0123 54.9413C60.88 54.8009 60.7336 54.674 60.5757 54.5631L60.3408 54.3927L60.5512 54.1968C61.1509 53.6373 61.3285 53.0115 61.3723 52.5852C61.4499 51.8558 61.2363 51.189 60.7565 50.6617C60.0365 49.8649 58.7685 49.4427 57.091 49.4427ZM67.7438 49.4427C66.0657 49.4427 64.7987 49.8654 64.0782 50.6617C63.6 51.189 63.3864 51.8537 63.4624 52.5852C63.5291 53.2022 63.8198 53.7736 64.2793 54.1927L64.4913 54.3895L64.2574 54.5595C64.0777 54.6869 63.9334 54.8118 63.8151 54.9413C63.2926 55.507 63.055 56.2499 63.1274 57.0886C63.2509 58.4956 64.5257 60 67.7339 60H67.7422C70.9503 60 72.2251 58.4956 72.3491 57.0886C72.421 56.2468 72.1835 55.5059 71.6625 54.9428C71.5307 54.8019 71.3848 54.6745 71.2264 54.5631L70.9915 54.3927L71.2035 54.1968C71.8026 53.6358 71.9787 53.0115 72.0241 52.5852C72.1001 51.8527 71.8855 51.188 71.4072 50.6617C70.6867 49.8649 69.4208 49.4427 67.7427 49.4427H67.7432H67.7438ZM48.2464 49.7178V59.8197H50.211V49.7178H48.2464ZM76.6904 49.7178L73.7797 56.023L73.7662 57.7828H79.5443V59.8135H81.3197V57.7823H82.4794V56.0183H81.3197V49.7178H76.6904ZM57.091 51.2066C58.2194 51.2066 59.0753 51.4382 59.44 51.8418C59.5817 51.9972 59.6328 52.1692 59.6093 52.4013C59.551 52.9514 58.7497 53.5058 57.091 53.5058C55.4322 53.5058 54.6335 52.9514 54.5768 52.4033C54.5512 52.1697 54.6044 51.9956 54.7424 51.8402C55.1087 51.4367 55.9646 51.2061 57.091 51.2061V51.2066ZM67.7438 51.2066C68.8701 51.2066 69.726 51.4382 70.0923 51.8418C70.2335 51.9972 70.2851 52.1692 70.26 52.4013C70.2033 52.9514 69.402 53.5058 67.7438 53.5058C66.0855 53.5058 65.2863 52.9514 65.2264 52.4033C65.203 52.1697 65.2561 51.9956 65.3957 51.8402C65.7604 51.4367 66.6159 51.2061 67.7438 51.2061V51.2066ZM77.823 51.4936H79.5437V56.0183H75.7339L77.8235 51.4936H77.823ZM57.091 55.4438C57.5551 55.4438 59.1144 55.4935 59.7041 56.1338C59.8912 56.3364 59.961 56.5835 59.9302 56.9352C59.8479 57.8931 58.4043 58.234 57.0826 58.234C55.7609 58.234 54.3272 57.8931 54.2433 56.9352C54.2131 56.584 54.2824 56.3359 54.4694 56.1338C54.8737 55.6955 55.8286 55.4438 57.091 55.4438ZM67.7438 55.4438C68.2069 55.4438 69.7651 55.4935 70.3549 56.1338C70.5429 56.3364 70.6133 56.583 70.5825 56.9352C70.4997 57.8931 69.0566 58.234 67.7349 58.234C66.4132 58.234 64.9795 57.8931 64.8972 56.9342C64.8649 56.5845 64.9347 56.3384 65.1233 56.1338C65.5197 55.7023 66.5012 55.4438 67.7438 55.4438Z" fill="#F3F2F1"/>
<path d="M67.5552 11.481C66.8341 11.0402 67.5416 10.3802 68.2131 10.3802C69.2879 10.3802 70.2642 11.3111 70.2642 11.3111C70.2642 11.3111 68.4038 12.0017 67.5552 11.481ZM57.5536 20.7847C55.0665 21.4457 55.726 16.0171 58.8841 11.6799C62.1027 7.26098 64.6263 5.93374 64.6263 5.93374C64.0808 12.3876 60.2048 20.0781 57.5536 20.7847ZM73.0561 3.24817C71.4729 2.5027 69.2311 2.87518 67.1858 3.61806L67.1801 3.61132C67.3343 0.813856 66.9008 0 66.9008 0L64.571 0.64808C64.571 0.64808 64.8795 2.27165 64.7258 4.77694H64.7273C58.6705 8.26237 54.5882 14.0904 53.4634 18.0095C52.2365 22.2777 55.6572 23.7282 58.5372 21.6275C65.6448 16.4403 67.0894 4.63551 67.0894 4.63551C69.2311 3.9838 70.9363 4.33349 71.9386 5.19241C74.457 7.34957 71.1889 10.6646 71.1889 10.6646C71.1889 10.6646 70.347 9.6839 68.7539 9.53988C66.2079 9.31246 64.9154 12.3529 68.2934 12.6782C68.8576 12.7321 70.3569 12.5171 70.9149 12.2425C71.4796 13.2828 71.3093 18.1022 68.0381 19.5268C65.1003 20.8069 64.0099 19.0109 64.0099 19.0109C63.9183 19.0109 62.4257 20.9629 62.5189 21.1442C62.5189 21.1442 64.0751 23.4542 67.4879 22.4632C70.1798 21.6825 71.4749 19.3481 72.1637 17.6727C73.3134 14.8836 72.4846 12.4275 72.0402 11.7784C76.5143 8.67267 75.8579 4.44797 73.0566 3.24817" fill="#F3F2F1"/>
</svg>
