<svg width="99" height="26" viewBox="0 0 99 26" fill="none" xmlns="http://www.w3.org/2000/svg">
<g clip-path="url(#clip0_3021_12151)">
<path d="M39.4689 8.27189C37.2017 8.27189 35.6503 8.99982 34.5028 10.6189C33.6062 9.19826 31.7792 8.27189 29.7926 8.27189C28.0263 8.27189 26.8565 8.74296 25.6876 9.97278V9.89217C25.6876 9.45793 25.5199 9.04148 25.2214 8.73443C24.9229 8.42738 24.518 8.25488 24.0958 8.25488C23.6736 8.25488 23.2687 8.42738 22.9702 8.73443C22.6716 9.04148 22.5039 9.45793 22.5039 9.89217V23.4075C22.5039 23.8717 22.6832 24.3169 23.0023 24.6451C23.3214 24.9733 23.7542 25.1577 24.2055 25.1577C24.6568 25.1577 25.0897 24.9733 25.4088 24.6451C25.7279 24.3169 25.9072 23.8717 25.9072 23.4075V15.7965C25.9072 12.8778 27.0036 11.5184 29.3584 11.5184C31.4492 11.5184 32.5092 12.8539 32.5092 15.4871V23.4075C32.5092 23.8717 32.6885 24.3169 33.0076 24.6451C33.3268 24.9733 33.7596 25.1577 34.2109 25.1577C34.6622 25.1577 35.095 24.9733 35.4141 24.6451C35.7332 24.3169 35.9125 23.8717 35.9125 23.4075V15.7686C35.9125 12.7896 36.9038 11.5184 39.2268 11.5184C41.4078 11.5184 42.5141 12.9673 42.5141 15.8248V23.4075C42.5141 23.8717 42.6934 24.3169 43.0125 24.6451C43.3316 24.9733 43.7644 25.1577 44.2157 25.1577C44.667 25.1577 45.0998 24.9733 45.4189 24.6451C45.7381 24.3169 45.9173 23.8717 45.9173 23.4075V15.0959C45.9123 10.824 43.5037 8.27189 39.4689 8.27189Z" fill="#F3F2F1"/>
<path d="M65.9373 8.27189C63.6704 8.27189 62.119 8.99982 60.9717 10.6189C60.0749 9.19826 58.2479 8.27189 56.2614 8.27189C54.495 8.27189 53.3252 8.74296 52.1564 9.97278V9.89217C52.1564 9.45793 51.9887 9.04148 51.6902 8.73443C51.3916 8.42738 50.9867 8.25488 50.5645 8.25488C50.1424 8.25488 49.7375 8.42738 49.4389 8.73443C49.1404 9.04148 48.9727 9.45793 48.9727 9.89217V23.4075C48.9727 23.8717 49.152 24.3169 49.4711 24.6451C49.7902 24.9733 50.223 25.1577 50.6743 25.1577C51.1256 25.1577 51.5584 24.9733 51.8775 24.6451C52.1966 24.3169 52.3759 23.8717 52.3759 23.4075V15.7965C52.3759 12.8778 53.4724 11.5184 55.8271 11.5184C57.9179 11.5184 58.978 12.8539 58.978 15.4871V23.4075C58.978 23.8717 59.1572 24.3169 59.4764 24.6451C59.7955 24.9733 60.2283 25.1577 60.6796 25.1577C61.1309 25.1577 61.5637 24.9733 61.8828 24.6451C62.2019 24.3169 62.3812 23.8717 62.3812 23.4075V15.7686C62.3812 12.7896 63.3725 11.5184 65.6955 11.5184C67.8765 11.5184 68.9828 12.9673 68.9828 15.8248V23.4075C68.9828 23.8717 69.162 24.3169 69.4812 24.6451C69.8003 24.9733 70.2331 25.1577 70.6844 25.1577C71.1357 25.1577 71.5685 24.9733 71.8876 24.6451C72.2067 24.3169 72.386 23.8717 72.386 23.4075V15.0959C72.3812 10.824 69.9723 8.27189 65.9373 8.27189Z" fill="#F3F2F1"/>
<path d="M87.8408 9.92134V10.3919C86.6504 9.00163 84.9361 8.27197 82.8366 8.27197C78.1684 8.27197 74.6484 12.0253 74.6484 17.0022C74.6484 21.5988 78.293 25.1995 82.9457 25.1995C84.9718 25.1995 86.7127 24.3915 87.8408 22.9548V23.4789C87.8408 23.9431 88.0201 24.3882 88.3392 24.7165C88.6583 25.0447 89.0912 25.2291 89.5425 25.2291C89.9938 25.2291 90.4266 25.0447 90.7457 24.7165C91.0648 24.3882 91.2441 23.9431 91.2441 23.4789V9.92109C91.2438 9.4869 91.0759 9.07059 90.7772 8.76373C90.4786 8.45687 90.0736 8.28459 89.6515 8.28479H89.4334C89.2244 8.28469 89.0173 8.32695 88.8242 8.40914C88.631 8.49133 88.4555 8.61185 88.3076 8.76382C88.1597 8.91579 88.0424 9.09623 87.9623 9.29483C87.8822 9.49344 87.8409 9.70633 87.8408 9.92134ZM87.8955 16.7776C87.8955 19.6312 85.6628 21.9528 82.9183 21.9528C80.2796 21.9528 78.0503 19.5829 78.0503 16.7776C78.0503 13.8778 80.2341 11.5182 82.9183 11.5182C85.7557 11.5182 87.8955 13.7791 87.8955 16.7776Z" fill="#F3F2F1"/>
<path d="M17.8311 19.5186L17.8174 19.5172C17.241 19.4405 16.7955 19.7538 16.1786 20.1864C15.271 20.8234 14.1414 21.6162 11.9573 21.7108C9.81374 21.7355 7.91104 21.0396 6.44956 19.6922C5.13715 18.4821 4.13607 16.7805 3.80581 14.9011C3.18867 11.3909 4.68347 7.09873 9.19804 5.42546C10.0858 5.12226 11.0195 4.98647 11.9542 5.02464C13.6559 5.09489 15.264 5.72669 16.6071 6.85149C16.9437 7.13169 17.3737 7.26492 17.8048 7.22256C18.2358 7.1802 18.6335 6.96563 18.9124 6.62495C19.3254 6.04492 19.4126 5.47476 19.1662 4.89941C18.3535 2.99886 14.3195 1.74193 12.9234 1.58491C12.4569 1.52087 11.9868 1.48875 11.5161 1.48877C8.8558 1.48877 6.23914 2.51127 4.16651 4.39482C1.63588 6.69373 0.201721 9.96436 0.231679 13.3676C0.191655 16.0942 1.14528 18.807 2.91761 21.0127C4.69952 23.2313 7.10505 24.6755 9.69152 25.08C10.2965 25.1881 10.9093 25.2423 11.5233 25.2423C14.1709 25.2423 16.7279 24.2747 18.7233 22.5179C19.2381 22.0944 19.4265 21.4101 19.2223 20.7258C19.0155 20.0341 18.4827 19.5719 17.8311 19.5186Z" fill="#F3F2F1"/>
<path d="M16.4778 11.1578C16.2583 11.2007 16.0492 11.288 15.8627 11.4146C15.6762 11.5412 15.5159 11.7046 15.3912 11.8953C15.1282 12.2962 14.7735 12.6246 14.3584 12.8517C13.9432 13.0787 13.4802 13.1974 13.01 13.1974C12.5398 13.1974 12.0767 13.0787 11.6616 12.8517C11.2464 12.6246 10.8917 12.2962 10.6288 11.8953C10.504 11.7046 10.3438 11.5413 10.1572 11.4147C9.97069 11.2882 9.76161 11.2009 9.54208 11.158C9.43475 11.1368 9.32569 11.126 9.21638 11.126C8.90789 11.1269 8.60545 11.214 8.34139 11.378C8.07733 11.5421 7.8616 11.7769 7.71727 12.0573C7.57294 12.3377 7.50544 12.6532 7.52198 12.97C7.53853 13.2869 7.63851 13.5931 7.81122 13.856C8.38581 14.7307 9.16024 15.447 10.0666 15.9422C10.973 16.4374 11.9837 16.6963 13.01 16.6963C14.0363 16.6963 15.0469 16.4374 15.9533 15.9422C16.8596 15.447 17.6341 14.7307 18.2087 13.856C18.3969 13.5694 18.4984 13.2318 18.5002 12.8859C18.502 12.54 18.4042 12.2013 18.219 11.9125C18.0338 11.6238 17.7695 11.398 17.4596 11.2636C17.1497 11.1292 16.8081 11.0926 16.4778 11.1578Z" fill="#F3F2F1"/>
<path d="M96.7344 22.4463C96.7344 22.1012 96.5052 21.7869 95.9447 21.7869H95.1777V24.0162H95.5277V23.1214H95.9209L96.4381 24.0162H96.8437L96.2709 23.0704C96.5827 22.9716 96.7344 22.7487 96.7344 22.4463ZM95.5267 22.8219V22.0989H95.9821C96.2236 22.0989 96.3722 22.2168 96.3722 22.4495C96.3722 22.7423 96.1834 22.8219 95.9758 22.8219H95.5267Z" fill="#F3F2F1"/>
<path d="M95.8867 20.8057C95.4744 20.8059 95.0714 20.9318 94.7287 21.1676C94.386 21.4033 94.119 21.7382 93.9613 22.13C93.8036 22.5218 93.7624 22.9529 93.8428 23.3688C93.9233 23.7846 94.1218 24.1667 94.4133 24.4665C94.7048 24.7664 95.0762 24.9707 95.4805 25.0535C95.8848 25.1364 96.3039 25.0941 96.6849 24.932C97.0659 24.7699 97.3916 24.4953 97.6208 24.1428C97.8501 23.7904 97.9726 23.376 97.973 22.952C97.9725 22.383 97.7525 21.8374 97.3614 21.4351C96.9702 21.0327 96.4399 20.8063 95.8867 20.8057ZM95.8867 24.7855C95.5339 24.7855 95.1891 24.6779 94.8959 24.4763C94.6026 24.2748 94.374 23.9883 94.239 23.6531C94.104 23.3179 94.0687 22.9491 94.1376 22.5933C94.2064 22.2375 94.3763 21.9107 94.6257 21.6541C94.8752 21.3976 95.1929 21.223 95.5389 21.1522C95.8848 21.0815 96.2434 21.1178 96.5693 21.2567C96.8952 21.3956 97.1737 21.6307 97.3696 21.9324C97.5655 22.234 97.6701 22.5887 97.67 22.9515C97.6695 23.4377 97.4814 23.9039 97.147 24.2477C96.8127 24.5916 96.3594 24.785 95.8867 24.7855Z" fill="#F3F2F1"/>
</g>
<defs>
<clipPath id="clip0_3021_12151">
<rect width="98" height="25" fill="white" transform="translate(0.230469 0.5)"/>
</clipPath>
</defs>
</svg>
