<svg width="101" height="60" viewBox="0 0 101 60" fill="none" xmlns="http://www.w3.org/2000/svg">
<path d="M7.84969 7.90426C8.09883 7.91991 8.34699 7.93506 8.58782 7.91551C7.71753 7.73265 6.17276 7.26427 5.78265 8.14578C5.55407 8.66159 5.45715 9.5035 5.57169 10.8876C5.68182 12.2179 5.98921 14.0875 6.56825 16.7101C8.67984 26.2737 8.01024 27.6148 6.84627 29.9459C6.65391 30.3312 6.44784 30.7438 6.22856 31.245C10.7518 26.2268 7.33134 16.9716 7.24079 16.5614C6.67153 13.9824 6.36904 12.1426 6.26038 10.8309C6.15612 9.57292 6.23052 8.84004 6.41456 8.42398C6.67643 7.8319 7.26624 7.86857 7.84969 7.90475V7.90426Z" fill="#F3F2F1"/>
<path d="M14.4186 56.0917C13.9483 57.3326 13.4921 58.2742 13.1558 58.9323C13.1558 58.9323 13.1558 58.9328 13.1553 58.9333C13.1411 58.9607 13.1274 58.9875 13.1142 59.0139C13.1127 59.0169 13.1113 59.0193 13.1098 59.0223C13.0976 59.0462 13.0853 59.0702 13.0731 59.0931C13.0701 59.099 13.0667 59.1049 13.0638 59.1107C13.053 59.1313 13.0427 59.1518 13.0325 59.1714C13.0271 59.1816 13.0222 59.1914 13.0168 59.2012C13.0094 59.2154 13.0021 59.2296 12.9948 59.2432C12.799 59.6197 12.6644 59.871 12.6237 60.0001C17.145 52.8434 29.279 32.4229 25.2942 24.4087C24.1263 22.0599 22.2115 21.0831 20.5972 20.1952C20.4489 18.1882 20.7382 16.4174 20.98 14.9433C21.3036 12.9686 21.5801 7.41992 18.2864 8.60015C20.6981 7.91225 20.5419 13.3524 20.2996 14.8328C20.1665 15.6454 19.9355 18.0088 20.1278 19.9327C18.6154 19.0678 17.4911 18.1667 17.7397 16.0243C17.7652 15.9583 17.7891 15.8933 17.8126 15.8292C17.82 15.8087 17.8268 15.7886 17.8342 15.7686C17.8498 15.7251 17.8655 15.6816 17.8802 15.6385C17.8885 15.6141 17.8963 15.5906 17.9042 15.5667C17.9169 15.5281 17.9301 15.4899 17.9419 15.4518C17.9502 15.4268 17.9575 15.4019 17.9654 15.377C17.9766 15.3408 17.9879 15.3051 17.9986 15.2694C18.0065 15.244 18.0133 15.2191 18.0207 15.1936C18.0305 15.1594 18.0402 15.1252 18.05 15.091C18.0569 15.0655 18.0632 15.0406 18.0701 15.0157C18.0789 14.9824 18.0877 14.9497 18.0956 14.9169C18.1019 14.892 18.1078 14.8675 18.1137 14.8426C18.1215 14.8103 18.1288 14.7785 18.1362 14.7473C18.1416 14.7228 18.1469 14.6984 18.1523 14.6739C18.1592 14.6431 18.1655 14.6118 18.1714 14.5815C18.1763 14.5576 18.1807 14.5336 18.1851 14.5096C18.191 14.4793 18.1964 14.4495 18.2013 14.4197C18.2052 14.3962 18.2091 14.3727 18.213 14.3498C18.2179 14.3204 18.2223 14.2911 18.2262 14.2623C18.2297 14.2393 18.2326 14.2168 18.236 14.1943C18.2399 14.1655 18.2434 14.1371 18.2468 14.1092C18.2492 14.0872 18.2522 14.0647 18.2541 14.0432C18.2571 14.0154 18.2595 13.988 18.262 13.9601C18.2639 13.9386 18.2659 13.9171 18.2674 13.8961C18.2693 13.8687 18.2708 13.8418 18.2723 13.8149C18.2732 13.7944 18.2747 13.7733 18.2757 13.7533C18.2767 13.7264 18.2776 13.7 18.2781 13.6736C18.2786 13.654 18.2791 13.634 18.2796 13.6149C18.2796 13.588 18.2796 13.5621 18.2796 13.5357C18.2796 13.5172 18.2796 13.4986 18.2791 13.4805C18.2786 13.4536 18.2771 13.4267 18.2762 13.4003C18.2752 13.3837 18.2752 13.3666 18.2742 13.3499C18.2723 13.3201 18.2698 13.2908 18.2674 13.2615C18.2664 13.2487 18.2654 13.236 18.2644 13.2238C18.2605 13.1827 18.2556 13.1426 18.2502 13.103C18.2483 13.0879 18.2458 13.0737 18.2434 13.059C18.2395 13.0346 18.236 13.0097 18.2316 12.9857C18.2287 12.9681 18.2248 12.951 18.2213 12.9334C18.2174 12.9129 18.2135 12.8923 18.2091 12.8723C18.2052 12.8542 18.2003 12.8361 18.1959 12.818C18.1915 12.7994 18.1871 12.7808 18.1822 12.7628C18.1773 12.7447 18.1719 12.7266 18.1665 12.7085C18.1616 12.6914 18.1567 12.6743 18.1514 12.6572C18.1455 12.6391 18.1396 12.6215 18.1332 12.6039C18.1279 12.5877 18.1225 12.5716 18.1166 12.5559C18.1102 12.5383 18.1034 12.5207 18.096 12.5031C18.0902 12.488 18.0843 12.4733 18.0779 12.4587C18.0706 12.4411 18.0628 12.4244 18.0549 12.4073C18.0486 12.3931 18.0422 12.3795 18.0353 12.3658C18.027 12.3487 18.0187 12.332 18.0099 12.3154C18.003 12.3022 17.9962 12.2895 17.9893 12.2768C17.98 12.2602 17.9707 12.244 17.9614 12.2274C17.9546 12.2152 17.9472 12.2034 17.9399 12.1917C17.9301 12.1756 17.9198 12.1594 17.9096 12.1438C17.9022 12.1326 17.8949 12.1218 17.8875 12.111C17.8768 12.0949 17.8655 12.0793 17.8542 12.0641C17.8469 12.0543 17.8396 12.0445 17.8317 12.0348C17.8195 12.0191 17.8073 12.0035 17.795 11.9883C17.7877 11.9795 17.7803 11.9712 17.773 11.9624C17.7598 11.9468 17.7461 11.9316 17.7324 11.9165C17.7255 11.9091 17.7187 11.9018 17.7118 11.8949C17.6971 11.8793 17.6819 11.8636 17.6668 11.849C17.6609 11.8431 17.655 11.8377 17.6492 11.8324C17.632 11.8162 17.6154 11.8006 17.5978 11.7849C17.5943 11.782 17.5909 11.7791 17.5875 11.7761C17.4304 11.6412 17.2507 11.5346 17.051 11.4569C17.0491 11.4559 17.0471 11.4554 17.0451 11.4544C17.0187 11.4442 16.9918 11.4344 16.9644 11.4251C16.961 11.4241 16.9575 11.4226 16.9541 11.4217C16.9277 11.4129 16.9008 11.4046 16.8733 11.3962C16.8694 11.3953 16.865 11.3938 16.8611 11.3928C16.8342 11.385 16.8068 11.3777 16.7794 11.3708C16.775 11.3698 16.7706 11.3684 16.7661 11.3674C16.7387 11.3606 16.7108 11.3547 16.6824 11.3488C16.678 11.3478 16.6731 11.3469 16.6687 11.3459C16.6404 11.34 16.6115 11.3351 16.5826 11.3302C16.5782 11.3298 16.5738 11.3288 16.5699 11.3283C16.5405 11.3234 16.5106 11.3195 16.4808 11.3156C16.4769 11.3156 16.473 11.3146 16.4695 11.3141C16.4387 11.3102 16.4074 11.3073 16.376 11.3043C16.3731 11.3043 16.3707 11.3043 16.3677 11.3038C16.3349 11.3009 16.3021 11.299 16.2693 11.297C16.2679 11.297 16.2669 11.297 16.2654 11.297C15.7368 11.2706 15.1357 11.3777 14.4999 11.6123C14.4999 11.6123 14.4994 11.6123 14.4989 11.6123C14.3433 11.67 14.1857 11.7346 14.0266 11.8074C12.3937 10.3329 10.8308 10.5573 9.8641 11.4691C6.51562 14.6265 11.2478 19.4961 12.7686 22.0668C18.7436 39.7938 16.4499 50.7278 14.4172 56.0888C14.4172 56.0898 14.4162 56.0907 14.4162 56.0912L14.4186 56.0917Z" fill="#F3F2F1"/>
<path d="M3.19719 6.61948C3.09538 5.90322 7.69838 4.65747 13.4786 3.83659C19.2587 3.01619 24.0272 2.9321 24.129 3.64836C24.1936 4.10158 22.3737 4.76699 19.5646 5.40209C23.7491 4.61347 26.5705 3.7124 26.4926 3.08513C26.4001 2.34149 22.2587 2.2178 16.7086 2.71502C16.435 1.59443 15.621 0.62834 14.4526 0.20983C12.6029 -0.453136 10.5652 0.50709 9.90149 2.35469C9.75514 2.76245 9.68808 3.17949 9.69151 3.58871C4.27599 4.45555 0.370982 5.5693 0.462513 6.3056C0.513419 6.7158 1.7973 6.93776 3.86973 6.97003C3.45563 6.88936 3.21922 6.773 3.19768 6.61948H3.19719Z" fill="#F3F2F1"/>
<path d="M99.0038 43.0948C97.8208 44.6735 95.2231 50.1156 93.8374 51.3252C93.3759 51.728 91.8751 52.6355 92.4522 49.8472C92.856 47.9659 96.0596 42.8596 96.204 41.5499C96.2907 40.6762 95.8002 39.5008 94.7033 39.8367C92.7988 40.4415 89.999 43.6664 88.7866 45.6817C89.3059 44.4051 89.6236 43.8678 89.5947 42.7589C89.5673 41.7454 88.4376 41.479 88.0905 41.8173C87.4743 42.2309 86.9383 43.5192 85.5541 44.808C85.1209 45.2108 84.6882 45.5135 84.2844 45.7149C84.5154 44.7742 84.6593 43.7998 84.6593 43.0948C84.6593 40.7094 83.6202 39.8025 82.3216 39.8362C80.769 39.869 78.9134 41.7977 79.9399 44.3024C78.8601 45.953 77.5664 48.0822 76.8092 48.1673C76.0877 48.268 76.3765 46.9915 76.607 45.8831C76.9247 44.4051 77.7039 43.1623 77.819 42.3223C77.9056 41.785 77.6173 41.4154 77.0397 41.7513C76.9786 41.7982 76.9164 41.8554 76.8547 41.9214C75.7666 42.8865 73.9472 46.5338 72.3932 49.4443C71.008 52.0644 69.68 53.4417 69.7955 51.3926C69.9111 49.545 71.6139 46.3202 72.9703 43.7333C73.3457 43.0278 73.9805 41.1802 72.191 40.5085C69.7378 39.6015 66.4764 44.9762 66.1876 45.7154C66.707 44.0355 66.9958 42.1546 67.3423 41.4491C69.1318 40.5422 77.2419 30.9346 77.2419 27.4071C77.2419 26.2312 75.7123 25.9628 74.7309 26.3994C74.2404 26.6008 72.5087 27.1382 69.9399 31.9422C67.868 35.4585 66.1857 40.0181 65.1896 43.2674C64.2562 44.5288 63.3203 45.3766 61.195 46.5891C60.964 45.7829 60.4158 44.9097 59.8965 43.8678C59.521 43.1285 59.521 42.423 59.6366 41.9527C59.7521 41.5161 60.0692 41.012 60.3869 40.5754C60.5313 39.9374 60.358 38.8623 59.7232 39.3996C59.7232 39.3996 58.6268 40.508 58.569 41.5831C58.5568 41.8222 58.5093 42.0143 58.5602 42.3419C57.2641 43.8448 55.7037 47.3821 54.384 49.6453C52.6234 52.635 52.6812 47.0252 55.3077 43.0611C56.2602 41.6501 55.1921 41.4824 54.7595 41.5156C54.3263 41.5156 53.8647 42.49 53.432 43.2962C52.595 44.5391 51.527 46.1183 51.0365 46.6556C50.1418 47.63 49.5069 45.7149 50.6327 43.5984C52.1623 40.7431 54.2979 41.2805 54.2979 41.2805C54.2979 41.2805 55.5676 41.2805 53.8936 40.7764C52.3929 40.3398 50.9788 41.0453 50.2284 41.8515C50.0454 42.0466 49.8608 42.2896 49.6871 42.5658C47.1741 44.3587 44.6577 44.5308 41.6568 44.4721C41.7723 44.1362 41.8878 43.7666 42.0033 43.4307C44.7742 34.9989 48.0645 27.7092 47.0831 27.0037C47.0831 27.0037 46.7943 26.063 45.8706 28.0118C45.0048 29.8594 42.6671 37.7202 40.0983 44.4388C38.8864 44.4051 37.5873 44.3714 36.2021 44.4051C27.3706 44.7072 26.072 50.452 25.7832 52.6687C26.3025 50.4515 28.4959 45.0431 35.7112 44.8749C37.2119 44.8412 38.5971 44.8749 39.8962 44.8749C39.2613 46.5211 38.5971 48.1336 37.9622 49.5108C35.1052 55.6584 31.9594 56.3639 31.9594 56.3639C31.9594 56.3639 33.1713 57.2708 35.0763 55.8598C36.8369 54.5496 39.3768 50.7536 41.4835 44.9087C44.7679 44.9356 47.3209 44.7918 49.3322 43.2087C48.7292 44.4599 48.434 46.0615 49.2186 47.0922C50.3155 48.5369 51.4408 46.9245 52.6244 45.2446C52.5955 45.379 52.5377 45.5135 52.5089 45.6474C51.4408 49.0405 52.3933 50.6192 53.4325 50.8206C54.3561 50.9883 55.222 48.973 56.8094 45.9833C57.4653 44.7723 57.8377 43.9739 58.6625 42.7638C58.8059 43.2249 59.1025 43.8966 59.6958 44.9757C60.0707 45.6812 60.3017 46.3192 60.3884 46.9577C60.0134 47.1591 59.638 47.3943 59.1765 47.6295C55.9729 49.3089 53.7795 51.4929 55.1647 53.5082C56.175 54.9524 59.3208 54.0792 60.7927 51.3584C61.6586 49.7797 61.7163 48.5027 61.2831 46.924C62.6928 46.1447 63.9938 45.227 64.939 44.1113C64.591 45.3096 64.3565 46.2639 64.2562 46.8233C63.7369 48.6709 64.054 49.4434 65.2087 49.3089C65.7569 47.2599 66.565 45.8151 67.8641 43.8668C69.9708 40.7089 72.6262 39.6343 71.818 42.1869C71.1543 44.3034 67.4025 50.2828 68.9321 52.2986C69.4514 53.0041 70.6639 53.4407 72.2512 50.5517C73.6105 48.0548 74.8019 45.7208 75.7373 44.0638C75.1166 45.9061 74.9208 48.1751 76.0613 48.6034C77.1538 48.9945 78.1645 47.8035 79.4367 45.8601C78.7583 47.9654 79.0446 50.5243 80.8811 50.5855C82.2952 50.6529 83.5365 48.402 84.1713 46.151C84.5468 46.0166 84.8928 45.8489 85.2105 45.6137C86.5683 44.654 87.3558 43.1256 88.1375 42.1634C88.118 42.4788 87.9501 43.1491 87.3461 44.5723C86.278 47.1254 86.6246 47.6627 86.7401 47.8979C87.0289 48.4689 87.6926 48.4689 87.8081 48.2338C88.3852 47.1924 89.0778 45.8489 90.4057 44.0682C92.368 41.4482 95.1678 39.4661 95.0234 40.5745C94.879 41.5489 90.4924 48.0656 91.1561 50.8876C91.5026 52.2986 92.6568 52.5338 93.4072 52.1642C95.9471 50.9883 98.7175 42.4221 100.998 41.784C100.998 41.784 100.45 41.146 99.0063 43.0943L99.0038 43.0948ZM74.0388 28.3472C75.9149 26.13 77.1557 26.8018 76.492 28.6161C75.4529 31.5051 71.0951 37.6865 67.5161 40.8439C68.6414 37.3838 71.9316 30.8334 74.0388 28.3472ZM57.2416 53.1728C56.1735 53.8783 55.3082 53.5087 55.1638 52.3328C54.9616 50.6197 57.3282 48.8391 60.0125 47.4955C60.1569 47.4285 60.3013 47.3948 60.4452 47.3273C60.6762 50.2501 58.3385 52.4673 57.2416 53.1728ZM81.8894 49.7127C80.6486 50.9893 79.9271 49.2087 80.3021 47.563C80.4465 46.9582 80.6775 46.3534 80.9658 45.7491C81.745 46.3872 82.7264 46.4884 83.6789 46.2864C83.1885 47.7644 82.4959 49.0747 81.8894 49.7127ZM83.8228 45.8831C82.7837 46.1857 81.8317 45.9506 81.1675 45.3458C81.8601 44.0022 82.6971 42.9609 82.6971 42.9271C82.7426 42.5291 82.698 41.9004 82.2927 41.7205C82.3118 41.7083 82.3314 41.6955 82.3505 41.6843C82.303 41.6843 82.2575 41.6872 82.2135 41.6921C82.1214 41.6672 82.0142 41.6623 81.8884 41.6843C81.7049 41.7112 81.2839 42.2055 80.7563 43.0997C80.677 43.2131 80.5933 43.3344 80.5032 43.4649C80.4381 43.5578 80.3711 43.6556 80.3026 43.7563C80.1865 43.243 80.1954 42.6489 80.33 42.0539C80.6188 40.9118 82.235 39.3664 83.5913 40.7104C84.6016 41.6848 84.4283 43.8683 83.8223 45.8836L83.8228 45.8831Z" fill="#F3F2F1"/>
<path d="M78.1673 40.3398C78.5716 40.4743 79.2642 40.0039 79.6392 39.097C79.9857 38.257 78.9466 38.1226 78.6289 38.3245C78.1668 38.6266 78.3401 38.7611 78.0518 39.3996C77.7919 39.9707 77.8208 40.2058 78.1673 40.3403V40.3398Z" fill="#F3F2F1"/>
<path d="M37.3583 37.8541C40.2443 35.6032 40.0999 31.0685 40.0426 31.1018C39.7249 34.8644 34.2991 41.2135 30.5762 37.7197C26.7667 34.1252 30.3741 22.737 46.4209 26.063C51.4718 27.1044 61.3131 27.5078 64.4301 21.0238C64.4301 21.0238 63.016 23.5432 59.0909 24.8872C56.9553 25.5927 54.531 26.1975 45.555 24.8535C36.0309 23.4425 31.0089 27.9776 29.7681 30.1611C26.4779 35.9053 31.2688 42.6915 37.3588 37.8537L37.3583 37.8541Z" fill="#F3F2F1"/>
</svg>
